<svg id="svg" version="1.1" xmlns="http://www.w3.org/2000/svg" xmlns:xlink="http://www.w3.org/1999/xlink" width="400" height="130.33333333333334" viewBox="0, 0, 400,130.33333333333334"><g id="svgg"><path id="path0" d="M55.708 12.083 C 55.594 12.213,55.500 12.435,55.500 12.576 C 55.500 12.718,55.425 12.833,55.333 12.833 C 55.242 12.833,55.167 12.983,55.167 13.167 C 55.167 13.350,55.092 13.500,55.000 13.500 C 54.908 13.500,54.833 13.725,54.833 14.000 C 54.833 14.275,54.758 14.500,54.667 14.500 C 54.575 14.500,54.500 14.758,54.500 15.073 C 54.500 15.389,54.425 15.693,54.333 15.750 C 54.242 15.807,54.167 16.224,54.167 16.677 C 54.167 17.129,54.092 17.500,54.000 17.500 C 53.893 17.500,53.833 19.000,53.833 21.667 C 53.833 24.333,53.893 25.833,54.000 25.833 C 54.095 25.833,54.167 26.333,54.167 27.000 C 54.167 27.667,54.238 28.167,54.333 28.167 C 54.425 28.167,54.500 28.542,54.500 29.000 C 54.500 29.458,54.575 29.833,54.667 29.833 C 54.758 29.833,54.833 30.133,54.833 30.500 C 54.833 30.867,54.908 31.167,55.000 31.167 C 55.092 31.167,55.167 31.467,55.167 31.833 C 55.167 32.200,55.242 32.500,55.333 32.500 C 55.425 32.500,55.500 32.721,55.500 32.990 C 55.500 33.260,55.575 33.527,55.667 33.583 C 55.758 33.640,55.833 33.870,55.833 34.095 C 55.833 34.320,55.908 34.654,56.000 34.836 C 56.092 35.018,56.242 35.316,56.333 35.498 C 56.425 35.680,56.500 35.980,56.500 36.164 C 56.500 36.349,56.575 36.500,56.667 36.500 C 56.758 36.500,56.833 36.725,56.833 37.000 C 56.833 37.275,56.908 37.500,57.000 37.500 C 57.092 37.500,57.167 37.650,57.167 37.833 C 57.167 38.017,57.242 38.167,57.333 38.167 C 57.425 38.167,57.500 38.317,57.500 38.500 C 57.500 38.683,57.575 38.833,57.667 38.833 C 57.758 38.833,57.833 39.016,57.833 39.240 C 57.833 39.464,57.908 39.693,58.000 39.750 C 58.092 39.807,58.167 39.999,58.167 40.177 C 58.167 40.354,58.242 40.500,58.333 40.500 C 58.425 40.500,58.500 40.650,58.500 40.833 C 58.500 41.017,58.575 41.167,58.667 41.167 C 58.758 41.167,58.833 41.317,58.833 41.500 C 58.833 41.683,58.908 41.833,59.000 41.833 C 59.092 41.833,59.167 41.983,59.167 42.167 C 59.167 42.350,59.242 42.500,59.333 42.500 C 59.425 42.500,59.500 42.650,59.500 42.833 C 59.500 43.017,59.575 43.167,59.667 43.167 C 59.758 43.167,59.833 43.317,59.833 43.500 C 59.833 43.683,59.908 43.833,60.000 43.833 C 60.092 43.833,60.167 43.949,60.167 44.090 C 60.167 44.232,60.317 44.508,60.500 44.705 C 60.683 44.902,60.833 45.161,60.833 45.281 C 60.833 45.402,60.908 45.500,61.000 45.500 C 61.092 45.500,61.167 45.650,61.167 45.833 C 61.167 46.017,61.242 46.167,61.333 46.167 C 61.425 46.167,61.500 46.282,61.500 46.424 C 61.500 46.565,61.650 46.842,61.833 47.038 C 62.017 47.235,62.167 47.495,62.167 47.615 C 62.167 47.735,62.242 47.833,62.333 47.833 C 62.425 47.833,62.500 47.983,62.500 48.167 C 62.500 48.350,62.562 48.500,62.639 48.500 C 62.715 48.500,62.883 48.706,63.014 48.958 C 63.144 49.210,63.381 49.562,63.542 49.740 C 63.702 49.917,63.833 50.161,63.833 50.281 C 63.833 50.402,63.908 50.500,64.000 50.500 C 64.092 50.500,64.167 50.598,64.167 50.719 C 64.167 50.839,64.317 51.098,64.500 51.295 C 64.683 51.492,64.833 51.732,64.833 51.828 C 64.833 51.924,65.058 52.238,65.333 52.526 C 65.608 52.814,65.833 53.134,65.833 53.238 C 65.833 53.342,65.983 53.535,66.167 53.667 C 66.350 53.799,66.500 54.010,66.500 54.137 C 66.500 54.263,66.725 54.576,67.000 54.833 C 67.275 55.090,67.500 55.387,67.500 55.493 C 67.500 55.774,68.958 57.167,69.251 57.167 C 69.450 57.167,69.500 56.916,69.500 55.927 C 69.500 55.244,69.575 54.640,69.667 54.583 C 69.758 54.527,69.833 54.035,69.833 53.490 C 69.833 52.941,69.908 52.500,70.000 52.500 C 70.092 52.500,70.167 52.125,70.167 51.667 C 70.167 51.208,70.242 50.833,70.333 50.833 C 70.425 50.833,70.500 50.533,70.500 50.167 C 70.500 49.800,70.575 49.500,70.667 49.500 C 70.758 49.500,70.833 49.242,70.833 48.927 C 70.833 48.611,70.908 48.307,71.000 48.250 C 71.092 48.193,71.167 47.926,71.167 47.657 C 71.167 47.387,71.242 47.167,71.333 47.167 C 71.425 47.167,71.500 46.942,71.500 46.667 C 71.500 46.392,71.575 46.167,71.667 46.167 C 71.758 46.167,71.833 45.942,71.833 45.667 C 71.833 45.392,71.908 45.167,72.000 45.167 C 72.092 45.167,72.167 45.017,72.167 44.833 C 72.167 44.650,72.242 44.500,72.333 44.500 C 72.425 44.500,72.500 44.275,72.500 44.000 C 72.500 43.725,72.575 43.500,72.667 43.500 C 72.758 43.500,72.833 43.350,72.833 43.167 C 72.833 42.983,72.908 42.833,73.000 42.833 C 73.092 42.833,73.167 42.683,73.167 42.500 C 73.167 42.317,73.242 42.167,73.333 42.167 C 73.425 42.167,73.500 42.017,73.500 41.833 C 73.500 41.650,73.575 41.500,73.667 41.500 C 73.758 41.500,73.833 41.350,73.833 41.167 C 73.833 40.983,73.908 40.833,74.000 40.833 C 74.092 40.833,74.167 40.718,74.167 40.576 C 74.167 40.435,74.317 40.158,74.500 39.962 C 74.683 39.765,74.833 39.505,74.833 39.385 C 74.833 39.265,74.908 39.167,75.000 39.167 C 75.092 39.167,75.167 39.033,75.167 38.870 C 75.167 38.707,75.317 38.465,75.500 38.333 C 75.683 38.201,75.833 38.006,75.833 37.900 C 75.833 37.794,76.133 37.398,76.500 37.020 C 76.867 36.642,77.167 36.267,77.167 36.186 C 77.167 35.972,79.148 33.977,79.833 33.500 C 80.154 33.277,80.692 32.810,81.029 32.464 C 81.365 32.117,81.710 31.833,81.796 31.833 C 81.881 31.833,82.186 31.608,82.474 31.333 C 82.762 31.058,83.083 30.833,83.187 30.833 C 83.292 30.833,83.499 30.702,83.647 30.541 C 83.795 30.379,84.123 30.142,84.375 30.012 C 84.627 29.883,84.833 29.715,84.833 29.639 C 84.833 29.562,84.949 29.500,85.090 29.500 C 85.232 29.500,85.508 29.350,85.705 29.167 C 85.902 28.983,86.161 28.833,86.281 28.833 C 86.402 28.833,86.500 28.758,86.500 28.667 C 86.500 28.575,86.650 28.500,86.833 28.500 C 87.017 28.500,87.167 28.425,87.167 28.333 C 87.167 28.242,87.317 28.167,87.500 28.167 C 87.683 28.167,87.833 28.092,87.833 28.000 C 87.833 27.908,87.983 27.833,88.167 27.833 C 88.350 27.833,88.500 27.758,88.500 27.667 C 88.500 27.575,88.683 27.500,88.907 27.500 C 89.131 27.500,89.360 27.425,89.417 27.333 C 89.473 27.242,89.665 27.167,89.843 27.167 C 90.021 27.167,90.167 27.092,90.167 27.000 C 90.167 26.908,90.312 26.833,90.490 26.833 C 90.668 26.833,90.860 26.758,90.917 26.667 C 90.973 26.575,91.236 26.500,91.500 26.500 C 91.764 26.500,92.027 26.425,92.083 26.333 C 92.140 26.242,92.407 26.167,92.677 26.167 C 92.946 26.167,93.167 26.092,93.167 26.000 C 93.167 25.908,93.467 25.833,93.833 25.833 C 94.200 25.833,94.500 25.758,94.500 25.667 C 94.500 25.575,94.833 25.500,95.240 25.500 C 95.647 25.500,96.027 25.425,96.083 25.333 C 96.140 25.242,96.707 25.167,97.343 25.167 C 98.003 25.167,98.500 25.095,98.500 25.000 C 98.500 24.895,99.552 24.833,101.323 24.833 C 103.026 24.833,104.188 24.900,104.250 25.000 C 104.307 25.092,104.836 25.167,105.427 25.167 C 106.031 25.167,106.500 25.239,106.500 25.333 C 106.500 25.425,106.875 25.500,107.333 25.500 C 107.792 25.500,108.167 25.575,108.167 25.667 C 108.167 25.758,108.467 25.833,108.833 25.833 C 109.200 25.833,109.500 25.908,109.500 26.000 C 109.500 26.092,109.800 26.167,110.167 26.167 C 110.533 26.167,110.833 26.242,110.833 26.333 C 110.833 26.425,111.058 26.500,111.333 26.500 C 111.608 26.500,111.833 26.575,111.833 26.667 C 111.833 26.758,112.058 26.833,112.333 26.833 C 112.608 26.833,112.833 26.908,112.833 27.000 C 112.833 27.092,112.983 27.167,113.167 27.167 C 113.350 27.167,113.500 27.242,113.500 27.333 C 113.500 27.425,113.683 27.500,113.907 27.500 C 114.131 27.500,114.360 27.575,114.417 27.667 C 114.473 27.758,114.740 27.833,115.010 27.833 L 115.500 27.833 115.500 20.000 L 115.500 12.167 93.333 12.167 C 78.667 12.167,71.167 12.110,71.167 12.000 C 71.167 11.709,55.966 11.790,55.708 12.083 M5.833 21.266 L 5.833 30.366 6.333 30.833 C 6.608 31.090,6.833 31.374,6.833 31.463 C 6.833 31.553,7.133 31.936,7.500 32.313 C 7.867 32.691,8.167 33.083,8.167 33.183 C 8.167 33.284,8.376 33.565,8.631 33.808 C 8.887 34.051,9.277 34.512,9.499 34.833 C 9.720 35.154,10.036 35.538,10.200 35.686 C 10.365 35.834,10.500 36.032,10.500 36.124 C 10.500 36.217,10.800 36.602,11.167 36.980 C 11.533 37.358,11.833 37.726,11.833 37.799 C 11.833 37.871,12.133 38.262,12.500 38.667 C 12.867 39.072,13.167 39.470,13.167 39.551 C 13.167 39.633,13.392 39.910,13.667 40.167 C 13.942 40.424,14.167 40.703,14.167 40.787 C 14.167 40.872,14.542 41.343,15.000 41.833 C 15.458 42.324,15.833 42.787,15.833 42.863 C 15.833 42.938,16.133 43.309,16.500 43.687 C 16.867 44.064,17.167 44.439,17.167 44.520 C 17.167 44.600,17.467 44.975,17.833 45.353 C 18.200 45.731,18.500 46.114,18.500 46.203 C 18.500 46.293,18.725 46.576,19.000 46.833 C 19.275 47.090,19.500 47.370,19.500 47.454 C 19.500 47.539,19.875 48.009,20.333 48.500 C 20.792 48.991,21.167 49.454,21.167 49.529 C 21.167 49.605,21.467 49.975,21.833 50.353 C 22.200 50.731,22.500 51.106,22.500 51.187 C 22.500 51.267,22.800 51.642,23.167 52.020 C 23.533 52.398,23.833 52.773,23.833 52.853 C 23.833 52.934,24.133 53.309,24.500 53.687 C 24.867 54.064,25.167 54.439,25.167 54.520 C 25.167 54.600,25.467 54.975,25.833 55.353 C 26.200 55.731,26.500 56.106,26.500 56.187 C 26.500 56.267,26.800 56.642,27.167 57.020 C 27.533 57.398,27.833 57.773,27.833 57.853 C 27.833 57.934,28.133 58.309,28.500 58.687 C 28.867 59.064,29.167 59.439,29.167 59.520 C 29.167 59.600,29.467 59.975,29.833 60.353 C 30.200 60.731,30.500 61.106,30.500 61.187 C 30.500 61.267,30.800 61.642,31.167 62.020 C 31.533 62.398,31.833 62.773,31.833 62.853 C 31.833 62.934,32.133 63.309,32.500 63.687 C 32.867 64.064,33.167 64.439,33.167 64.520 C 33.167 64.600,33.467 64.975,33.833 65.353 C 34.200 65.731,34.500 66.106,34.500 66.187 C 34.500 66.267,34.800 66.642,35.167 67.020 C 35.533 67.398,35.833 67.773,35.833 67.853 C 35.833 67.934,36.133 68.309,36.500 68.687 C 36.867 69.064,37.167 69.439,37.167 69.520 C 37.167 69.600,37.467 69.975,37.833 70.353 C 38.200 70.731,38.500 71.106,38.500 71.187 C 38.500 71.267,38.800 71.642,39.167 72.020 C 39.533 72.398,39.833 72.773,39.833 72.853 C 39.833 72.934,40.133 73.309,40.500 73.687 C 40.867 74.064,41.167 74.439,41.167 74.520 C 41.167 74.600,41.467 74.975,41.833 75.353 C 42.200 75.731,42.500 76.106,42.500 76.187 C 42.500 76.267,42.800 76.642,43.167 77.020 C 43.533 77.398,43.833 77.773,43.833 77.853 C 43.833 77.934,44.133 78.309,44.500 78.687 C 44.867 79.064,45.167 79.439,45.167 79.520 C 45.167 79.600,45.467 79.975,45.833 80.353 C 46.200 80.731,46.500 81.106,46.500 81.187 C 46.500 81.267,46.800 81.642,47.167 82.020 C 47.533 82.398,47.833 82.773,47.833 82.853 C 47.833 82.934,48.133 83.309,48.500 83.687 C 48.867 84.064,49.167 84.445,49.167 84.532 C 49.167 85.248,50.168 85.328,50.860 84.667 C 51.147 84.392,51.447 84.167,51.525 84.167 C 51.602 84.167,51.975 83.867,52.353 83.500 C 52.731 83.133,53.106 82.833,53.187 82.833 C 53.267 82.833,53.642 82.533,54.020 82.167 C 54.398 81.800,54.780 81.500,54.870 81.500 C 54.960 81.500,55.243 81.275,55.500 81.000 C 55.757 80.725,56.040 80.500,56.130 80.500 C 56.220 80.500,56.602 80.200,56.980 79.833 C 57.358 79.467,57.733 79.167,57.813 79.167 C 57.894 79.167,58.269 78.867,58.647 78.500 C 59.025 78.133,59.400 77.833,59.480 77.833 C 59.561 77.833,59.919 77.552,60.276 77.208 C 60.633 76.865,61.130 76.477,61.379 76.347 C 62.049 75.998,61.950 75.518,61.000 74.500 C 60.542 74.009,60.167 73.539,60.167 73.454 C 60.167 73.370,59.942 73.090,59.667 72.833 C 59.392 72.576,59.167 72.295,59.167 72.208 C 59.167 72.121,58.942 71.814,58.667 71.526 C 58.392 71.238,58.167 70.938,58.167 70.860 C 58.167 70.781,57.942 70.481,57.667 70.193 C 57.392 69.905,57.167 69.605,57.167 69.526 C 57.167 69.447,56.942 69.147,56.667 68.860 C 56.392 68.572,56.166 68.279,56.166 68.210 C 56.166 68.140,55.941 67.821,55.667 67.500 C 55.392 67.179,55.167 66.839,55.167 66.745 C 55.167 66.651,55.017 66.465,54.833 66.333 C 54.650 66.201,54.500 65.987,54.500 65.858 C 54.500 65.728,54.368 65.501,54.207 65.353 C 54.046 65.205,53.808 64.877,53.679 64.625 C 53.550 64.373,53.381 64.167,53.305 64.167 C 53.229 64.167,53.167 64.068,53.167 63.948 C 53.167 63.828,53.035 63.584,52.875 63.406 C 52.715 63.229,52.477 62.877,52.347 62.625 C 52.217 62.373,52.048 62.167,51.972 62.167 C 51.896 62.167,51.833 62.068,51.833 61.948 C 51.833 61.828,51.702 61.584,51.542 61.406 C 51.381 61.229,51.144 60.877,51.014 60.625 C 50.883 60.373,50.715 60.167,50.639 60.167 C 50.562 60.167,50.500 60.033,50.500 59.870 C 50.500 59.707,50.350 59.465,50.167 59.333 C 49.983 59.201,49.833 58.960,49.833 58.797 C 49.833 58.633,49.758 58.500,49.667 58.500 C 49.575 58.500,49.500 58.367,49.500 58.203 C 49.500 58.040,49.350 57.799,49.167 57.667 C 48.983 57.535,48.833 57.293,48.833 57.130 C 48.833 56.967,48.758 56.833,48.667 56.833 C 48.575 56.833,48.500 56.683,48.500 56.500 C 48.500 56.317,48.425 56.167,48.333 56.167 C 48.242 56.167,48.167 56.068,48.167 55.948 C 48.167 55.828,48.017 55.569,47.833 55.372 C 47.650 55.175,47.500 54.898,47.500 54.757 C 47.500 54.616,47.425 54.500,47.333 54.500 C 47.242 54.500,47.167 54.350,47.167 54.167 C 47.167 53.983,47.092 53.833,47.000 53.833 C 46.908 53.833,46.833 53.683,46.833 53.500 C 46.833 53.317,46.777 53.166,46.708 53.165 C 46.640 53.165,46.501 52.996,46.400 52.790 C 46.299 52.585,46.055 52.098,45.858 51.708 C 45.045 50.101,44.833 49.624,44.833 49.401 C 44.833 49.272,44.758 49.167,44.667 49.167 C 44.575 49.167,44.500 49.017,44.500 48.833 C 44.500 48.650,44.425 48.500,44.333 48.500 C 44.242 48.500,44.167 48.350,44.167 48.167 C 44.167 47.983,44.092 47.833,44.000 47.833 C 43.908 47.833,43.833 47.688,43.833 47.510 C 43.833 47.332,43.758 47.140,43.667 47.083 C 43.575 47.027,43.500 46.797,43.500 46.573 C 43.500 46.350,43.425 46.167,43.333 46.167 C 43.242 46.167,43.167 46.017,43.167 45.833 C 43.167 45.650,43.092 45.500,43.000 45.500 C 42.908 45.500,42.833 45.275,42.833 45.000 C 42.833 44.725,42.758 44.500,42.667 44.500 C 42.575 44.500,42.500 44.275,42.500 44.000 C 42.500 43.725,42.425 43.500,42.333 43.500 C 42.242 43.500,42.167 43.317,42.167 43.093 C 42.167 42.869,42.092 42.640,42.000 42.583 C 41.908 42.527,41.833 42.302,41.833 42.083 C 41.833 41.865,41.758 41.640,41.667 41.583 C 41.575 41.527,41.500 41.260,41.500 40.990 C 41.500 40.721,41.425 40.500,41.333 40.500 C 41.242 40.500,41.167 40.275,41.167 40.000 C 41.167 39.725,41.092 39.500,41.000 39.500 C 40.908 39.500,40.833 39.200,40.833 38.833 C 40.833 38.467,40.758 38.167,40.667 38.167 C 40.575 38.167,40.500 37.871,40.500 37.510 C 40.500 37.149,40.425 36.807,40.333 36.750 C 40.242 36.693,40.167 36.314,40.167 35.907 C 40.167 35.500,40.092 35.167,40.000 35.167 C 39.907 35.167,39.833 34.722,39.833 34.167 C 39.833 33.611,39.759 33.167,39.667 33.167 C 39.568 33.167,39.500 32.556,39.500 31.667 C 39.500 30.778,39.432 30.167,39.333 30.167 C 39.228 30.167,39.167 29.003,39.167 27.010 C 39.167 25.085,39.232 23.813,39.333 23.750 C 39.425 23.693,39.500 23.014,39.500 22.240 C 39.500 21.413,39.569 20.833,39.667 20.833 C 39.758 20.833,39.833 20.458,39.833 20.000 C 39.833 19.542,39.908 19.167,40.000 19.167 C 40.092 19.167,40.167 18.871,40.167 18.510 C 40.167 18.149,40.242 17.807,40.333 17.750 C 40.425 17.693,40.500 17.389,40.500 17.073 C 40.500 16.758,40.575 16.500,40.667 16.500 C 40.758 16.500,40.833 16.275,40.833 16.000 C 40.833 15.725,40.908 15.500,41.000 15.500 C 41.092 15.500,41.167 15.275,41.167 15.000 C 41.167 14.725,41.242 14.500,41.333 14.500 C 41.425 14.500,41.500 14.350,41.500 14.167 C 41.500 13.983,41.575 13.833,41.667 13.833 C 41.758 13.833,41.833 13.683,41.833 13.500 C 41.833 13.317,41.908 13.167,42.000 13.167 C 42.092 13.167,42.167 12.942,42.167 12.667 L 42.167 12.167 24.000 12.167 L 5.833 12.167 5.833 21.266 M92.167 36.333 C 92.167 36.426,91.722 36.500,91.167 36.500 C 90.611 36.500,90.167 36.574,90.167 36.667 C 90.167 36.758,89.867 36.833,89.500 36.833 C 89.133 36.833,88.833 36.908,88.833 37.000 C 88.833 37.092,88.608 37.167,88.333 37.167 C 88.058 37.167,87.833 37.242,87.833 37.333 C 87.833 37.425,87.608 37.500,87.333 37.500 C 87.058 37.500,86.833 37.575,86.833 37.667 C 86.833 37.758,86.683 37.833,86.500 37.833 C 86.317 37.833,86.167 37.908,86.167 38.000 C 86.167 38.092,86.017 38.167,85.833 38.167 C 85.650 38.167,85.500 38.242,85.500 38.333 C 85.500 38.425,85.350 38.500,85.167 38.500 C 84.983 38.500,84.833 38.575,84.833 38.667 C 84.833 38.758,84.735 38.833,84.615 38.833 C 84.495 38.833,84.235 38.983,84.038 39.167 C 83.842 39.350,83.612 39.500,83.527 39.500 C 83.443 39.500,83.064 39.800,82.687 40.167 C 82.309 40.533,81.930 40.833,81.844 40.833 C 81.657 40.833,80.167 42.343,80.167 42.533 C 80.167 42.606,79.867 42.975,79.500 43.353 C 79.133 43.731,78.833 44.127,78.833 44.233 C 78.833 44.340,78.683 44.535,78.500 44.667 C 78.317 44.799,78.167 45.040,78.167 45.203 C 78.167 45.367,78.092 45.500,78.000 45.500 C 77.908 45.500,77.833 45.616,77.833 45.757 C 77.833 45.898,77.683 46.175,77.500 46.372 C 77.317 46.569,77.167 46.861,77.167 47.022 C 77.167 47.182,77.092 47.360,77.000 47.417 C 76.908 47.473,76.833 47.665,76.833 47.843 C 76.833 48.021,76.758 48.167,76.667 48.167 C 76.575 48.167,76.500 48.312,76.500 48.490 C 76.500 48.668,76.425 48.860,76.333 48.917 C 76.242 48.973,76.167 49.198,76.167 49.417 C 76.167 49.635,76.092 49.860,76.000 49.917 C 75.908 49.973,75.833 50.278,75.833 50.593 C 75.833 50.909,75.758 51.167,75.667 51.167 C 75.572 51.167,75.500 51.663,75.500 52.323 C 75.500 52.960,75.425 53.527,75.333 53.583 C 75.242 53.640,75.167 54.315,75.167 55.083 C 75.167 55.852,75.242 56.527,75.333 56.583 C 75.425 56.640,75.500 57.391,75.500 58.260 C 75.500 59.198,75.567 59.833,75.667 59.833 C 75.758 59.833,75.833 60.204,75.833 60.657 C 75.833 61.110,75.908 61.527,76.000 61.583 C 76.092 61.640,76.167 61.940,76.167 62.250 C 76.167 62.560,76.242 62.860,76.333 62.917 C 76.425 62.973,76.500 63.278,76.500 63.593 C 76.500 63.909,76.575 64.167,76.667 64.167 C 76.758 64.167,76.833 64.350,76.833 64.573 C 76.833 64.797,76.908 65.027,77.000 65.083 C 77.092 65.140,77.167 65.332,77.167 65.510 C 77.167 65.688,77.242 65.833,77.333 65.833 C 77.425 65.833,77.500 65.947,77.500 66.086 C 77.500 66.224,77.567 66.468,77.649 66.627 C 77.731 66.786,78.042 67.423,78.341 68.042 C 78.639 68.660,78.947 69.167,79.025 69.167 C 79.103 69.167,79.167 69.317,79.167 69.500 C 79.167 69.683,79.229 69.833,79.305 69.833 C 79.381 69.833,79.550 70.040,79.680 70.292 C 79.810 70.544,80.048 70.895,80.208 71.073 C 80.369 71.251,80.500 71.458,80.500 71.533 C 80.500 71.608,80.725 71.905,81.000 72.193 C 81.275 72.481,81.500 72.785,81.500 72.869 C 81.500 72.953,81.875 73.387,82.333 73.833 C 82.792 74.280,83.167 74.722,83.167 74.815 C 83.167 75.024,89.028 80.913,89.848 81.527 C 90.174 81.772,90.876 82.390,91.409 82.902 C 91.942 83.414,92.450 83.833,92.539 83.833 C 92.627 83.833,92.910 84.058,93.167 84.333 C 93.424 84.608,93.737 84.833,93.863 84.833 C 93.990 84.833,94.201 84.983,94.333 85.167 C 94.465 85.350,94.655 85.500,94.755 85.500 C 94.855 85.500,95.083 85.631,95.260 85.792 C 95.438 85.952,95.790 86.190,96.042 86.320 C 96.294 86.450,96.500 86.619,96.500 86.695 C 96.500 86.771,96.650 86.833,96.833 86.833 C 97.017 86.833,97.167 86.908,97.167 87.000 C 97.167 87.092,97.317 87.167,97.500 87.167 C 97.683 87.167,97.833 87.228,97.833 87.302 C 97.833 87.497,99.138 88.167,99.516 88.167 C 99.690 88.167,99.833 88.242,99.833 88.333 C 99.833 88.425,99.979 88.500,100.157 88.500 C 100.335 88.500,100.527 88.575,100.583 88.667 C 100.640 88.758,100.869 88.833,101.093 88.833 C 101.317 88.833,101.500 88.908,101.500 89.000 C 101.500 89.092,101.800 89.167,102.167 89.167 C 102.533 89.167,102.833 89.242,102.833 89.333 C 102.833 89.426,103.278 89.500,103.833 89.500 C 104.389 89.500,104.833 89.574,104.833 89.667 C 104.833 89.767,105.497 89.833,106.490 89.833 C 107.415 89.833,108.193 89.760,108.250 89.667 C 108.307 89.575,108.836 89.500,109.427 89.500 C 110.031 89.500,110.500 89.427,110.500 89.333 C 110.500 89.242,110.725 89.167,111.000 89.167 C 111.275 89.167,111.500 89.092,111.500 89.000 C 111.500 88.908,111.725 88.833,112.000 88.833 C 112.275 88.833,112.500 88.758,112.500 88.667 C 112.500 88.575,112.725 88.500,113.000 88.500 C 113.275 88.500,113.500 88.425,113.500 88.333 C 113.500 88.242,113.650 88.167,113.833 88.167 C 114.017 88.167,114.167 88.092,114.167 88.000 C 114.167 87.908,114.317 87.833,114.500 87.833 C 114.683 87.833,114.833 87.767,114.833 87.686 C 114.833 87.605,114.983 87.500,115.167 87.452 C 115.498 87.365,115.500 87.224,115.500 66.508 L 115.500 45.651 115.042 45.247 C 114.790 45.025,114.526 44.841,114.457 44.839 C 114.387 44.836,114.095 44.608,113.807 44.333 C 113.519 44.058,113.199 43.833,113.095 43.833 C 112.992 43.833,112.799 43.683,112.667 43.500 C 112.535 43.317,112.321 43.167,112.191 43.167 C 112.062 43.167,111.834 43.035,111.686 42.874 C 111.538 42.713,111.210 42.475,110.958 42.346 C 110.706 42.216,110.500 42.048,110.500 41.972 C 110.500 41.896,110.367 41.833,110.203 41.833 C 110.040 41.833,109.799 41.683,109.667 41.500 C 109.535 41.317,109.299 41.167,109.144 41.167 C 108.988 41.167,108.836 41.110,108.806 41.042 C 108.736 40.885,107.848 40.344,107.458 40.220 C 107.298 40.169,107.167 40.062,107.167 39.981 C 107.167 39.900,107.017 39.833,106.833 39.833 C 106.650 39.833,106.500 39.758,106.500 39.667 C 106.500 39.575,106.350 39.500,106.167 39.500 C 105.983 39.500,105.833 39.425,105.833 39.333 C 105.833 39.242,105.683 39.167,105.500 39.167 C 105.317 39.167,105.167 39.092,105.167 39.000 C 105.167 38.908,105.017 38.833,104.833 38.833 C 104.650 38.833,104.500 38.758,104.500 38.667 C 104.500 38.575,104.350 38.500,104.167 38.500 C 103.983 38.500,103.833 38.425,103.833 38.333 C 103.833 38.242,103.608 38.167,103.333 38.167 C 103.058 38.167,102.833 38.092,102.833 38.000 C 102.833 37.908,102.688 37.833,102.510 37.833 C 102.332 37.833,102.140 37.758,102.083 37.667 C 102.027 37.575,101.802 37.500,101.583 37.500 C 101.365 37.500,101.140 37.425,101.083 37.333 C 101.027 37.242,100.722 37.167,100.407 37.167 C 100.091 37.167,99.833 37.092,99.833 37.000 C 99.833 36.908,99.575 36.833,99.260 36.833 C 98.944 36.833,98.640 36.758,98.583 36.667 C 98.527 36.575,98.110 36.500,97.657 36.500 C 97.204 36.500,96.833 36.425,96.833 36.333 C 96.833 36.230,95.944 36.167,94.500 36.167 C 93.056 36.167,92.167 36.230,92.167 36.333 M5.833 86.500 C 5.833 121.056,5.834 121.167,6.167 121.167 C 6.350 121.167,6.500 121.092,6.500 121.000 C 6.500 120.908,6.605 120.833,6.733 120.833 C 6.861 120.833,7.349 120.458,7.817 120.000 C 8.285 119.542,8.735 119.167,8.817 119.167 C 8.899 119.167,9.349 118.792,9.817 118.333 C 10.285 117.875,10.735 117.500,10.817 117.500 C 10.899 117.500,11.349 117.125,11.817 116.667 C 12.285 116.208,12.734 115.833,12.814 115.833 C 12.894 115.833,13.250 115.552,13.605 115.208 C 13.960 114.863,14.512 114.395,14.833 114.167 C 15.154 113.938,15.707 113.470,16.062 113.126 C 16.417 112.782,16.779 112.500,16.866 112.500 C 16.954 112.500,17.314 112.200,17.667 111.833 C 18.019 111.467,18.380 111.167,18.470 111.167 C 18.560 111.167,19.016 110.792,19.484 110.333 C 19.952 109.875,20.402 109.500,20.484 109.500 C 20.566 109.500,21.016 109.125,21.484 108.667 C 21.952 108.208,22.402 107.833,22.484 107.833 C 22.566 107.833,23.016 107.458,23.484 107.000 C 23.952 106.542,24.401 106.167,24.481 106.167 C 24.561 106.167,24.917 105.885,25.272 105.541 C 25.626 105.197,26.179 104.728,26.500 104.500 C 26.821 104.272,27.374 103.803,27.728 103.459 C 28.083 103.115,28.439 102.833,28.519 102.833 C 28.599 102.833,29.048 102.458,29.516 102.000 C 29.984 101.542,30.440 101.167,30.530 101.167 C 30.620 101.167,30.981 100.867,31.333 100.500 C 31.686 100.133,32.047 99.833,32.137 99.833 C 32.226 99.833,32.683 99.458,33.151 99.000 C 33.619 98.542,34.069 98.167,34.151 98.167 C 34.233 98.167,34.683 97.792,35.151 97.333 C 35.619 96.875,36.069 96.500,36.151 96.500 C 36.233 96.500,36.683 96.125,37.151 95.667 C 37.619 95.208,38.058 94.833,38.126 94.833 C 39.081 94.832,39.452 93.233,38.667 92.500 C 38.392 92.243,38.167 91.960,38.167 91.870 C 38.167 91.780,37.867 91.398,37.500 91.020 C 37.133 90.642,36.833 90.267,36.833 90.187 C 36.833 90.106,36.533 89.731,36.167 89.353 C 35.800 88.975,35.500 88.600,35.500 88.520 C 35.500 88.439,35.200 88.064,34.833 87.687 C 34.467 87.309,34.167 86.925,34.167 86.833 C 34.167 86.742,33.867 86.358,33.500 85.980 C 33.133 85.602,32.833 85.220,32.833 85.130 C 32.833 85.040,32.608 84.757,32.333 84.500 C 32.058 84.243,31.833 83.960,31.833 83.870 C 31.833 83.780,31.533 83.398,31.167 83.020 C 30.800 82.642,30.500 82.267,30.500 82.187 C 30.500 82.106,30.200 81.731,29.833 81.353 C 29.467 80.975,29.167 80.600,29.167 80.520 C 29.167 80.439,28.867 80.064,28.500 79.687 C 28.133 79.309,27.833 78.925,27.833 78.833 C 27.833 78.742,27.533 78.358,27.167 77.980 C 26.800 77.602,26.500 77.220,26.500 77.130 C 26.500 77.040,26.291 76.768,26.035 76.525 C 25.780 76.282,25.389 75.821,25.168 75.500 C 24.947 75.179,24.631 74.795,24.466 74.647 C 24.301 74.499,24.167 74.302,24.167 74.209 C 24.167 74.116,23.867 73.731,23.500 73.353 C 23.133 72.975,22.833 72.600,22.833 72.520 C 22.833 72.439,22.533 72.064,22.167 71.687 C 21.800 71.309,21.500 70.919,21.500 70.820 C 21.500 70.721,21.200 70.352,20.833 70.000 C 20.467 69.648,20.167 69.279,20.167 69.180 C 20.167 69.081,19.867 68.691,19.500 68.313 C 19.133 67.936,18.833 67.553,18.833 67.463 C 18.833 67.374,18.608 67.090,18.333 66.833 C 18.058 66.576,17.833 66.293,17.833 66.203 C 17.833 66.114,17.533 65.731,17.167 65.353 C 16.800 64.975,16.500 64.600,16.500 64.520 C 16.500 64.439,16.200 64.064,15.833 63.687 C 15.467 63.309,15.167 62.934,15.167 62.853 C 15.167 62.773,14.867 62.398,14.500 62.020 C 14.133 61.642,13.833 61.258,13.833 61.167 C 13.833 61.075,13.533 60.691,13.167 60.313 C 12.800 59.936,12.500 59.553,12.500 59.463 C 12.500 59.374,12.291 59.102,12.035 58.859 C 11.780 58.616,11.389 58.154,11.168 57.833 C 10.947 57.512,10.631 57.129,10.466 56.980 C 10.301 56.832,10.167 56.635,10.167 56.542 C 10.167 56.449,9.867 56.064,9.500 55.687 C 9.133 55.309,8.833 54.934,8.833 54.853 C 8.833 54.773,8.533 54.398,8.167 54.020 C 7.800 53.642,7.500 53.256,7.500 53.161 C 7.500 52.892,6.374 51.833,6.089 51.833 C 5.860 51.833,5.833 55.461,5.833 86.500 M66.167 82.000 C 66.167 82.092,66.055 82.167,65.918 82.167 C 65.780 82.167,65.285 82.542,64.817 83.000 C 64.349 83.458,63.893 83.833,63.803 83.833 C 63.714 83.833,63.352 84.133,63.000 84.500 C 62.648 84.867,62.295 85.167,62.216 85.167 C 62.137 85.167,61.680 85.542,61.199 86.000 C 60.719 86.458,60.260 86.833,60.180 86.833 C 60.099 86.833,59.651 87.208,59.183 87.667 C 58.715 88.125,58.257 88.500,58.167 88.500 C 58.076 88.500,57.619 88.875,57.151 89.333 C 56.683 89.792,56.230 90.167,56.144 90.167 C 56.059 90.167,55.729 90.427,55.411 90.744 C 54.615 91.540,54.637 92.091,55.500 92.980 C 55.867 93.358,56.167 93.748,56.167 93.847 C 56.167 93.945,56.467 94.314,56.833 94.667 C 57.200 95.019,57.500 95.375,57.500 95.457 C 57.500 95.540,57.875 96.009,58.333 96.500 C 58.792 96.991,59.167 97.459,59.167 97.540 C 59.167 97.622,59.542 98.054,60.000 98.500 C 60.458 98.946,60.833 99.385,60.833 99.474 C 60.833 99.563,61.470 100.284,62.248 101.076 C 63.026 101.868,63.869 102.792,64.123 103.129 C 64.707 103.906,68.340 107.500,68.542 107.500 C 68.625 107.500,68.981 107.800,69.333 108.167 C 69.686 108.533,70.055 108.833,70.155 108.833 C 70.255 108.833,70.572 109.058,70.860 109.333 C 71.147 109.608,71.450 109.833,71.532 109.833 C 71.614 109.833,71.842 109.983,72.038 110.167 C 72.235 110.350,72.495 110.500,72.615 110.500 C 72.735 110.500,72.833 110.575,72.833 110.667 C 72.833 110.758,72.967 110.833,73.130 110.833 C 73.293 110.833,73.535 110.983,73.667 111.167 C 73.799 111.350,74.040 111.500,74.203 111.500 C 74.367 111.500,74.500 111.575,74.500 111.667 C 74.500 111.758,74.650 111.833,74.833 111.833 C 75.017 111.833,75.167 111.908,75.167 112.000 C 75.167 112.092,75.317 112.167,75.500 112.167 C 75.683 112.167,75.833 112.242,75.833 112.333 C 75.833 112.425,75.983 112.500,76.167 112.500 C 76.350 112.500,76.500 112.575,76.500 112.667 C 76.500 112.758,76.650 112.833,76.833 112.833 C 77.017 112.833,77.167 112.908,77.167 113.000 C 77.167 113.092,77.312 113.167,77.490 113.167 C 77.668 113.167,77.860 113.242,77.917 113.333 C 77.973 113.425,78.203 113.500,78.427 113.500 C 78.650 113.500,78.833 113.575,78.833 113.667 C 78.833 113.758,79.058 113.833,79.333 113.833 C 79.608 113.833,79.833 113.908,79.833 114.000 C 79.833 114.092,80.129 114.167,80.490 114.167 C 80.851 114.167,81.193 114.242,81.250 114.333 C 81.307 114.425,82.057 114.500,82.927 114.500 C 83.792 114.500,84.500 114.540,84.500 114.589 C 84.500 114.740,83.353 115.833,83.195 115.833 C 83.112 115.833,82.500 116.358,81.833 117.000 C 81.167 117.642,80.553 118.167,80.468 118.167 C 80.384 118.167,79.888 118.602,79.366 119.133 C 78.844 119.665,78.285 120.150,78.125 120.211 C 77.953 120.277,77.833 120.497,77.833 120.745 L 77.833 121.167 96.668 121.167 L 115.502 121.167 115.459 107.222 C 115.429 97.458,115.363 93.260,115.237 93.218 C 115.012 93.143,114.133 93.973,113.747 94.627 C 113.586 94.899,113.236 95.251,112.968 95.409 C 112.700 95.567,112.225 95.952,111.913 96.265 C 111.600 96.578,111.286 96.834,111.214 96.834 C 111.142 96.834,110.821 97.059,110.500 97.333 C 110.179 97.608,109.823 97.833,109.708 97.833 C 109.594 97.833,109.500 97.908,109.500 98.000 C 109.500 98.092,109.350 98.167,109.167 98.167 C 108.983 98.167,108.833 98.242,108.833 98.333 C 108.833 98.425,108.683 98.500,108.500 98.500 C 108.317 98.500,108.167 98.575,108.167 98.667 C 108.167 98.758,108.017 98.833,107.833 98.833 C 107.650 98.833,107.500 98.908,107.500 99.000 C 107.500 99.092,107.350 99.167,107.167 99.167 C 106.983 99.167,106.833 99.242,106.833 99.333 C 106.833 99.425,106.608 99.500,106.333 99.500 C 106.058 99.500,105.833 99.575,105.833 99.667 C 105.833 99.758,105.608 99.833,105.333 99.833 C 105.058 99.833,104.833 99.908,104.833 100.000 C 104.833 100.092,104.575 100.167,104.260 100.167 C 103.944 100.167,103.640 100.242,103.583 100.333 C 103.527 100.425,103.110 100.500,102.657 100.500 C 102.204 100.500,101.833 100.575,101.833 100.667 C 101.833 100.772,100.614 100.833,98.510 100.833 C 96.474 100.833,95.146 100.769,95.083 100.667 C 95.027 100.575,94.572 100.500,94.073 100.500 C 93.575 100.500,93.167 100.425,93.167 100.333 C 93.167 100.242,92.871 100.167,92.510 100.167 C 92.149 100.167,91.807 100.092,91.750 100.000 C 91.693 99.908,91.389 99.833,91.073 99.833 C 90.758 99.833,90.500 99.758,90.500 99.667 C 90.500 99.575,90.279 99.500,90.010 99.500 C 89.740 99.500,89.473 99.425,89.417 99.333 C 89.360 99.242,89.131 99.167,88.907 99.167 C 88.683 99.167,88.500 99.092,88.500 99.000 C 88.500 98.908,88.275 98.833,88.000 98.833 C 87.725 98.833,87.500 98.758,87.500 98.667 C 87.500 98.575,87.350 98.500,87.167 98.500 C 86.983 98.500,86.833 98.425,86.833 98.333 C 86.833 98.242,86.683 98.167,86.500 98.167 C 86.317 98.167,86.167 98.092,86.167 98.000 C 86.167 97.908,86.017 97.833,85.833 97.833 C 85.650 97.833,85.500 97.758,85.500 97.667 C 85.500 97.575,85.350 97.500,85.167 97.500 C 84.983 97.500,84.833 97.425,84.833 97.333 C 84.833 97.242,84.683 97.167,84.500 97.167 C 84.317 97.167,84.167 97.092,84.167 97.000 C 84.167 96.908,84.068 96.833,83.948 96.833 C 83.828 96.833,83.569 96.683,83.372 96.500 C 83.175 96.317,82.898 96.167,82.757 96.167 C 82.616 96.167,82.500 96.104,82.500 96.028 C 82.500 95.952,82.294 95.783,82.042 95.653 C 81.790 95.523,81.438 95.285,81.260 95.125 C 81.083 94.965,80.855 94.833,80.755 94.833 C 80.655 94.833,80.465 94.683,80.333 94.500 C 80.201 94.317,79.990 94.167,79.863 94.167 C 79.737 94.167,79.424 93.942,79.167 93.667 C 78.910 93.392,78.626 93.167,78.537 93.167 C 78.447 93.167,78.064 92.867,77.687 92.500 C 77.309 92.133,76.931 91.833,76.848 91.833 C 76.764 91.833,76.256 91.402,75.719 90.875 C 75.182 90.348,74.259 89.504,73.667 89.000 C 72.602 88.093,71.472 86.936,71.012 86.281 C 70.882 86.095,70.188 85.351,69.471 84.627 C 68.753 83.903,68.167 83.238,68.167 83.150 C 68.167 82.805,67.002 81.833,66.589 81.833 C 66.357 81.833,66.167 81.908,66.167 82.000 M43.000 100.500 C 42.679 100.858,42.334 101.155,42.234 101.159 C 42.133 101.163,41.578 101.617,41.000 102.167 C 40.422 102.717,39.886 103.167,39.809 103.167 C 39.732 103.167,39.285 103.542,38.817 104.000 C 38.349 104.458,37.899 104.833,37.817 104.833 C 37.735 104.833,37.285 105.208,36.817 105.667 C 36.349 106.125,35.894 106.500,35.806 106.500 C 35.717 106.500,35.280 106.875,34.833 107.333 C 34.387 107.792,33.937 108.167,33.833 108.167 C 33.730 108.167,33.280 108.542,32.833 109.000 C 32.387 109.458,31.949 109.833,31.861 109.833 C 31.773 109.833,31.317 110.208,30.849 110.667 C 30.381 111.125,29.931 111.500,29.849 111.500 C 29.767 111.500,29.317 111.875,28.849 112.333 C 28.381 112.792,27.935 113.167,27.858 113.167 C 27.781 113.167,27.245 113.617,26.667 114.167 C 26.089 114.717,25.553 115.167,25.475 115.167 C 25.398 115.167,24.952 115.542,24.484 116.000 C 24.016 116.458,23.566 116.833,23.484 116.833 C 23.402 116.833,22.952 117.208,22.484 117.667 C 22.016 118.125,21.561 118.500,21.472 118.500 C 21.384 118.500,20.946 118.875,20.500 119.333 C 20.054 119.792,19.611 120.167,19.517 120.167 C 19.285 120.167,18.959 120.799,19.085 121.003 C 19.317 121.378,61.500 121.209,61.500 120.833 C 61.500 120.650,61.425 120.500,61.333 120.500 C 61.242 120.500,61.167 120.401,61.167 120.279 C 61.167 120.158,60.792 119.657,60.333 119.167 C 59.875 118.676,59.500 118.207,59.500 118.124 C 59.500 118.041,59.200 117.686,58.833 117.333 C 58.467 116.981,58.167 116.628,58.167 116.550 C 58.167 116.471,57.792 116.013,57.333 115.533 C 56.875 115.052,56.500 114.593,56.500 114.513 C 56.500 114.433,56.125 113.984,55.667 113.516 C 55.208 113.048,54.833 112.591,54.833 112.500 C 54.833 112.409,54.458 111.952,54.000 111.484 C 53.542 111.016,53.167 110.560,53.167 110.470 C 53.167 110.380,52.867 110.019,52.500 109.667 C 52.133 109.314,51.833 108.953,51.833 108.863 C 51.833 108.774,51.458 108.317,51.000 107.849 C 50.542 107.381,50.167 106.937,50.167 106.862 C 50.167 106.787,49.792 106.324,49.333 105.833 C 48.875 105.343,48.500 104.873,48.500 104.791 C 48.500 104.708,48.200 104.352,47.833 104.000 C 47.467 103.648,47.167 103.286,47.167 103.197 C 47.167 103.107,46.792 102.651,46.333 102.183 C 45.875 101.715,45.500 101.272,45.500 101.198 C 45.500 101.125,45.246 100.788,44.936 100.449 C 44.202 99.648,43.753 99.660,43.000 100.500 " stroke="none" fill="#f45c24" fill-rule="evenodd"></path><path id="path1" d="M142.250 13.333 C 142.110 13.559,142.299 13.833,142.593 13.833 C 142.725 13.833,142.833 13.900,142.833 13.981 C 142.833 14.062,142.965 14.171,143.125 14.223 C 143.458 14.332,144.703 15.055,145.359 15.520 C 145.602 15.692,145.884 15.833,145.984 15.833 C 146.084 15.833,146.167 15.892,146.167 15.964 C 146.167 16.036,146.375 16.218,146.630 16.369 C 146.885 16.519,147.354 16.875,147.672 17.160 C 147.990 17.445,148.438 17.794,148.667 17.936 C 149.129 18.223,149.946 19.247,150.483 20.213 L 150.833 20.843 150.833 66.495 C 150.833 96.750,150.777 112.182,150.667 112.250 C 150.575 112.307,150.500 112.536,150.500 112.760 C 150.500 112.984,150.438 113.167,150.361 113.167 C 150.285 113.167,150.117 113.372,149.986 113.624 C 149.411 114.737,145.263 118.830,144.708 118.832 C 144.594 118.833,144.500 118.892,144.500 118.964 C 144.500 119.036,144.285 119.222,144.023 119.376 C 143.196 119.865,142.276 120.772,142.401 120.975 C 142.558 121.228,193.760 121.253,193.917 121.000 C 193.973 120.908,194.375 120.833,194.810 120.833 C 195.244 120.833,195.671 120.766,195.758 120.683 C 195.845 120.600,196.254 120.490,196.667 120.438 C 198.344 120.227,198.833 120.125,198.833 119.982 C 198.833 119.900,199.129 119.833,199.490 119.833 C 199.851 119.833,200.193 119.758,200.250 119.667 C 200.307 119.575,200.532 119.500,200.750 119.500 C 200.968 119.500,201.193 119.425,201.250 119.333 C 201.307 119.242,201.569 119.167,201.833 119.167 C 202.098 119.167,202.360 119.092,202.417 119.000 C 202.473 118.908,202.698 118.833,202.917 118.833 C 203.135 118.833,203.360 118.758,203.417 118.667 C 203.473 118.575,203.698 118.500,203.917 118.500 C 204.135 118.500,204.360 118.425,204.417 118.333 C 204.473 118.242,204.666 118.167,204.845 118.167 C 205.025 118.167,205.320 118.092,205.502 118.000 C 205.684 117.908,205.982 117.758,206.164 117.667 C 206.346 117.575,206.646 117.500,206.831 117.500 C 207.016 117.500,207.167 117.425,207.167 117.333 C 207.167 117.242,207.317 117.167,207.500 117.167 C 207.683 117.167,207.833 117.092,207.833 117.000 C 207.833 116.908,207.981 116.833,208.162 116.833 C 208.342 116.833,208.757 116.683,209.083 116.500 C 209.410 116.317,209.787 116.167,209.922 116.167 C 210.056 116.167,210.167 116.092,210.167 116.000 C 210.167 115.908,210.317 115.833,210.500 115.833 C 210.683 115.833,210.834 115.777,210.835 115.708 C 210.836 115.559,211.643 115.167,211.950 115.167 C 212.069 115.167,212.167 115.092,212.167 115.000 C 212.167 114.908,212.317 114.833,212.500 114.833 C 212.683 114.833,212.833 114.767,212.833 114.686 C 212.833 114.605,212.965 114.496,213.125 114.443 C 213.285 114.391,213.792 114.118,214.250 113.838 C 214.708 113.557,215.236 113.261,215.424 113.181 C 215.611 113.100,215.864 112.914,215.986 112.767 C 216.108 112.620,216.295 112.500,216.402 112.500 C 216.509 112.500,216.928 112.200,217.333 111.833 C 217.738 111.467,218.140 111.167,218.225 111.167 C 218.311 111.167,218.596 110.942,218.858 110.667 C 219.121 110.392,219.408 110.167,219.495 110.167 C 219.704 110.167,223.130 106.748,223.759 105.911 C 224.029 105.551,224.456 105.038,224.708 104.771 C 224.960 104.503,225.167 104.183,225.167 104.059 C 225.167 103.935,225.229 103.833,225.305 103.833 C 225.381 103.833,225.550 103.627,225.680 103.375 C 225.810 103.123,225.954 102.879,226.000 102.833 C 226.236 102.598,227.590 99.940,228.037 98.833 C 228.130 98.604,228.272 98.286,228.353 98.127 C 228.434 97.968,228.500 97.691,228.500 97.512 C 228.500 97.333,228.575 97.140,228.667 97.083 C 228.758 97.027,228.833 96.722,228.833 96.407 C 228.833 96.091,228.908 95.833,229.000 95.833 C 229.092 95.833,229.167 95.575,229.167 95.260 C 229.167 94.944,229.242 94.640,229.333 94.583 C 229.425 94.527,229.500 94.087,229.500 93.607 C 229.500 93.126,229.578 92.656,229.672 92.561 C 230.020 92.213,229.691 82.146,229.319 81.758 C 229.235 81.671,229.167 81.319,229.167 80.977 C 229.167 80.634,229.092 80.307,229.000 80.250 C 228.908 80.193,228.833 79.926,228.833 79.657 C 228.833 79.387,228.758 79.167,228.667 79.167 C 228.575 79.167,228.500 78.946,228.500 78.677 C 228.500 78.407,228.425 78.140,228.333 78.083 C 228.242 78.027,228.167 77.834,228.167 77.655 C 228.167 77.475,228.092 77.180,228.000 76.998 C 227.908 76.816,227.758 76.518,227.667 76.336 C 227.575 76.154,227.500 75.891,227.500 75.752 C 227.500 75.614,227.425 75.500,227.333 75.500 C 227.242 75.500,227.167 75.386,227.167 75.248 C 227.167 75.016,226.866 74.366,226.667 74.167 C 226.468 73.968,226.167 73.317,226.167 73.086 C 226.167 72.947,226.109 72.833,226.039 72.833 C 225.969 72.833,225.727 72.533,225.500 72.167 C 225.273 71.800,225.031 71.500,224.961 71.500 C 224.891 71.500,224.833 71.402,224.833 71.283 C 224.833 71.053,224.496 70.644,222.386 68.308 C 221.670 67.515,221.004 66.859,220.908 66.850 C 220.811 66.841,220.461 66.590,220.129 66.292 C 219.316 65.560,217.854 64.500,217.658 64.500 C 217.571 64.500,217.500 64.434,217.500 64.353 C 217.500 64.272,217.369 64.164,217.208 64.113 C 216.923 64.022,215.998 63.498,215.833 63.333 C 215.641 63.141,214.283 62.500,214.068 62.500 C 213.939 62.500,213.833 62.425,213.833 62.333 C 213.833 62.242,213.728 62.167,213.599 62.167 C 213.397 62.167,212.866 61.937,211.627 61.312 C 211.468 61.232,211.224 61.167,211.086 61.167 C 210.947 61.167,210.833 61.092,210.833 61.000 C 210.833 60.908,210.645 60.833,210.414 60.833 C 210.184 60.833,209.846 60.758,209.664 60.667 C 209.482 60.575,209.184 60.425,209.002 60.333 C 208.820 60.242,208.450 60.167,208.179 60.167 C 207.908 60.167,207.640 60.092,207.583 60.000 C 207.527 59.908,207.237 59.833,206.940 59.833 C 206.643 59.833,206.329 59.763,206.242 59.678 C 206.155 59.592,205.789 59.499,205.430 59.469 C 205.070 59.440,204.748 59.331,204.714 59.227 C 204.651 59.036,206.211 58.167,206.616 58.167 C 206.736 58.167,206.833 58.092,206.833 58.000 C 206.833 57.908,206.914 57.833,207.012 57.833 C 207.110 57.833,207.517 57.608,207.917 57.333 C 208.316 57.058,208.705 56.833,208.780 56.833 C 208.855 56.833,209.179 56.608,209.500 56.333 C 209.821 56.059,210.136 55.834,210.201 55.834 C 210.539 55.833,214.832 51.521,214.834 51.182 C 214.834 51.128,215.059 50.821,215.333 50.500 C 215.608 50.179,215.833 49.823,215.833 49.708 C 215.833 49.594,215.908 49.500,216.000 49.500 C 216.092 49.500,216.167 49.402,216.167 49.281 C 216.167 49.161,216.317 48.902,216.500 48.705 C 216.683 48.508,216.833 48.271,216.833 48.179 C 216.833 48.086,216.983 47.743,217.167 47.417 C 217.350 47.090,217.500 46.675,217.500 46.495 C 217.500 46.314,217.575 46.167,217.667 46.167 C 217.758 46.167,217.833 46.021,217.833 45.843 C 217.833 45.665,217.908 45.473,218.000 45.417 C 218.092 45.360,218.167 45.098,218.167 44.833 C 218.167 44.569,218.242 44.307,218.333 44.250 C 218.425 44.193,218.500 43.931,218.500 43.667 C 218.500 43.402,218.575 43.140,218.667 43.083 C 218.758 43.027,218.833 42.647,218.833 42.240 C 218.833 41.833,218.908 41.500,219.000 41.500 C 219.094 41.500,219.167 41.031,219.167 40.427 C 219.167 39.836,219.242 39.307,219.333 39.250 C 219.432 39.189,219.500 38.168,219.500 36.750 C 219.500 35.332,219.432 34.311,219.333 34.250 C 219.242 34.193,219.167 33.706,219.167 33.167 C 219.167 32.627,219.092 32.140,219.000 32.083 C 218.908 32.027,218.833 31.727,218.833 31.417 C 218.833 31.107,218.758 30.807,218.667 30.750 C 218.575 30.693,218.500 30.463,218.500 30.238 C 218.500 30.013,218.413 29.661,218.307 29.456 C 217.893 28.654,217.833 28.493,217.833 28.169 C 217.833 27.984,217.758 27.833,217.667 27.833 C 217.575 27.833,217.500 27.683,217.500 27.500 C 217.500 27.317,217.425 27.167,217.333 27.167 C 217.242 27.167,217.167 27.051,217.167 26.910 C 217.167 26.768,217.017 26.492,216.833 26.295 C 216.650 26.098,216.500 25.839,216.500 25.719 C 216.500 25.598,216.425 25.500,216.333 25.500 C 216.242 25.500,216.167 25.402,216.167 25.281 C 216.167 25.161,216.035 24.917,215.875 24.740 C 215.715 24.562,215.383 24.154,215.138 23.833 C 214.469 22.957,212.495 20.967,211.833 20.502 C 211.512 20.277,211.105 19.959,210.927 19.796 C 210.749 19.633,210.522 19.500,210.422 19.500 C 210.322 19.500,210.132 19.350,210.000 19.167 C 209.868 18.983,209.643 18.833,209.500 18.833 C 209.357 18.833,209.132 18.683,209.000 18.500 C 208.868 18.317,208.633 18.167,208.477 18.167 C 208.322 18.167,208.169 18.110,208.139 18.042 C 208.059 17.862,206.679 17.167,206.401 17.167 C 206.272 17.167,206.167 17.110,206.167 17.041 C 206.167 16.971,205.923 16.815,205.625 16.693 C 204.479 16.225,204.241 16.123,203.961 15.981 C 203.801 15.900,203.558 15.833,203.419 15.833 C 203.280 15.833,203.167 15.758,203.167 15.667 C 203.167 15.575,202.984 15.500,202.760 15.500 C 202.536 15.500,202.307 15.425,202.250 15.333 C 202.193 15.242,201.968 15.167,201.750 15.167 C 201.532 15.167,201.307 15.092,201.250 15.000 C 201.193 14.908,200.931 14.833,200.667 14.833 C 200.402 14.833,200.140 14.758,200.083 14.667 C 200.027 14.575,199.802 14.500,199.583 14.500 C 199.365 14.500,199.140 14.425,199.083 14.333 C 199.027 14.242,198.722 14.167,198.407 14.167 C 198.091 14.167,197.833 14.092,197.833 14.000 C 197.833 13.908,197.500 13.833,197.093 13.833 C 196.686 13.833,196.307 13.758,196.250 13.667 C 196.193 13.575,195.743 13.500,195.250 13.500 C 194.757 13.500,194.307 13.425,194.250 13.333 C 194.182 13.223,185.335 13.167,168.250 13.167 C 151.165 13.167,142.318 13.223,142.250 13.333 M240.579 13.341 C 240.431 13.580,240.774 13.956,241.417 14.261 C 241.713 14.402,242.112 14.663,242.304 14.842 C 242.496 15.020,242.715 15.167,242.791 15.167 C 242.867 15.167,243.189 15.389,243.506 15.660 C 243.824 15.931,244.136 16.156,244.201 16.160 C 244.320 16.167,245.701 17.390,246.487 18.185 C 247.625 19.336,247.923 19.798,248.310 21.012 C 248.562 21.801,248.585 111.428,248.333 111.583 C 248.242 111.640,248.167 111.912,248.167 112.188 C 248.167 112.473,247.951 113.004,247.667 113.417 C 247.392 113.816,247.167 114.185,247.167 114.236 C 247.167 114.513,244.625 117.226,243.329 118.333 C 242.847 118.746,242.294 119.233,242.101 119.417 C 241.908 119.600,241.559 119.848,241.325 119.968 C 240.836 120.220,240.443 120.773,240.588 121.007 C 240.737 121.249,269.779 121.222,269.929 120.980 C 270.052 120.781,269.464 120.172,268.500 119.498 C 268.179 119.274,267.750 118.925,267.545 118.723 C 267.341 118.521,266.893 118.145,266.549 117.886 C 265.289 116.939,263.271 114.750,262.738 113.752 C 262.465 113.240,262.184 112.702,262.000 112.336 C 261.799 111.937,261.763 39.500,261.964 39.500 C 262.036 39.500,262.226 39.722,262.387 39.994 C 262.547 40.266,262.772 40.584,262.886 40.702 C 263.001 40.820,263.276 41.179,263.497 41.500 C 263.719 41.821,263.945 42.121,264.000 42.167 C 264.055 42.212,264.280 42.512,264.500 42.833 C 264.721 43.154,265.036 43.538,265.200 43.686 C 265.365 43.834,265.500 44.025,265.500 44.109 C 265.500 44.193,265.798 44.597,266.162 45.006 C 266.526 45.415,266.826 45.844,266.829 45.958 C 266.831 46.073,266.892 46.167,266.964 46.167 C 267.036 46.167,267.218 46.373,267.369 46.625 C 267.520 46.877,267.911 47.365,268.238 47.709 C 268.566 48.053,268.833 48.395,268.833 48.469 C 268.833 48.543,268.965 48.752,269.125 48.933 C 269.285 49.114,269.676 49.596,269.994 50.006 C 270.311 50.415,270.630 50.775,270.702 50.806 C 270.774 50.836,270.833 50.949,270.834 51.056 C 270.834 51.163,271.030 51.475,271.269 51.750 C 271.508 52.025,271.901 52.512,272.143 52.833 C 272.384 53.154,272.623 53.454,272.674 53.500 C 272.725 53.546,272.948 53.846,273.170 54.167 C 273.392 54.487,273.708 54.895,273.870 55.073 C 274.033 55.251,274.167 55.460,274.167 55.539 C 274.167 55.618,274.349 55.864,274.572 56.087 C 274.795 56.310,275.189 56.775,275.447 57.121 C 275.705 57.467,276.048 57.895,276.208 58.073 C 276.369 58.251,276.500 58.467,276.500 58.554 C 276.500 58.640,276.635 58.832,276.800 58.980 C 276.964 59.129,277.281 59.512,277.503 59.833 C 277.726 60.154,278.041 60.562,278.204 60.740 C 278.367 60.917,278.500 61.131,278.500 61.215 C 278.500 61.298,278.725 61.576,279.000 61.833 C 279.275 62.090,279.500 62.372,279.500 62.459 C 279.500 62.546,279.707 62.835,279.960 63.100 C 280.213 63.366,280.603 63.846,280.827 64.167 C 281.051 64.487,281.369 64.871,281.534 65.020 C 281.699 65.168,281.833 65.363,281.833 65.453 C 281.833 65.543,282.058 65.853,282.333 66.140 C 282.608 66.428,282.833 66.728,282.833 66.807 C 282.833 66.886,283.058 67.186,283.333 67.474 C 283.608 67.762,283.834 68.054,283.834 68.123 C 283.835 68.193,284.043 68.475,284.298 68.750 C 284.552 69.025,284.942 69.512,285.164 69.833 C 285.386 70.154,285.702 70.538,285.867 70.686 C 286.032 70.834,286.167 71.025,286.167 71.109 C 286.167 71.193,286.465 71.597,286.829 72.006 C 287.193 72.415,287.493 72.814,287.495 72.891 C 287.498 72.969,287.725 73.243,288.000 73.500 C 288.275 73.757,288.500 74.017,288.500 74.078 C 288.500 74.139,288.842 74.615,289.260 75.136 C 289.678 75.657,290.111 76.196,290.221 76.333 C 290.331 76.471,290.606 76.846,290.831 77.167 C 291.057 77.487,291.374 77.895,291.537 78.073 C 291.700 78.251,291.833 78.464,291.833 78.548 C 291.833 78.631,292.058 78.910,292.333 79.167 C 292.608 79.424,292.834 79.697,292.834 79.775 C 292.835 79.853,293.041 80.144,293.292 80.421 C 293.544 80.699,294.010 81.261,294.327 81.671 C 294.645 82.081,294.963 82.442,295.035 82.472 C 295.108 82.503,295.167 82.616,295.167 82.723 C 295.167 82.831,295.467 83.237,295.833 83.626 C 296.200 84.016,296.500 84.398,296.500 84.476 C 296.500 84.554,296.707 84.835,296.960 85.100 C 297.213 85.366,297.605 85.846,297.831 86.167 C 298.056 86.487,298.374 86.895,298.537 87.073 C 298.700 87.251,298.833 87.460,298.833 87.539 C 298.833 87.618,299.016 87.864,299.239 88.087 C 299.462 88.310,299.855 88.775,300.113 89.121 C 300.370 89.467,300.623 89.787,300.674 89.833 C 300.725 89.879,300.946 90.179,301.167 90.500 C 301.387 90.821,301.684 91.196,301.825 91.333 C 301.967 91.471,302.343 91.921,302.660 92.333 C 302.978 92.746,303.297 93.108,303.369 93.139 C 303.441 93.169,303.502 93.282,303.504 93.389 C 303.506 93.496,303.778 93.883,304.109 94.250 C 304.440 94.617,304.906 95.179,305.145 95.500 C 305.384 95.821,305.697 96.196,305.839 96.333 C 305.982 96.471,306.281 96.846,306.502 97.167 C 306.724 97.487,307.003 97.850,307.122 97.973 C 307.241 98.095,307.543 98.470,307.793 98.806 C 308.043 99.142,308.290 99.454,308.340 99.500 C 308.391 99.546,308.614 99.846,308.835 100.167 C 309.056 100.487,309.446 100.949,309.702 101.192 C 309.958 101.435,310.168 101.697,310.170 101.775 C 310.172 101.853,310.546 102.329,311.000 102.833 C 311.454 103.337,311.828 103.814,311.830 103.891 C 311.832 103.969,312.040 104.232,312.292 104.475 C 312.545 104.718,312.956 105.191,313.206 105.527 C 313.457 105.863,313.757 106.238,313.873 106.361 C 313.990 106.483,314.421 106.996,314.831 107.500 C 315.241 108.004,315.692 108.529,315.832 108.667 C 315.972 108.804,316.283 109.179,316.522 109.500 C 316.762 109.821,317.530 110.677,318.229 111.403 C 318.928 112.128,319.500 112.771,319.500 112.831 C 319.500 112.891,319.874 113.272,320.332 113.678 C 320.789 114.084,321.164 114.465,321.165 114.525 C 321.167 114.648,322.326 115.833,322.444 115.833 C 322.529 115.833,322.876 116.150,324.504 117.709 C 325.102 118.281,326.000 119.087,326.501 119.500 C 327.001 119.912,327.629 120.456,327.897 120.708 C 328.164 120.960,328.449 121.167,328.530 121.167 C 328.611 121.167,329.062 121.542,329.532 122.000 C 330.003 122.458,330.487 122.833,330.609 122.833 C 330.731 122.833,330.924 122.983,331.039 123.167 C 331.153 123.350,331.325 123.500,331.421 123.500 C 331.517 123.500,331.856 123.722,332.173 123.993 C 332.490 124.265,332.844 124.490,332.958 124.493 C 333.073 124.497,333.167 124.557,333.167 124.627 C 333.167 124.697,333.467 124.940,333.833 125.167 C 334.200 125.393,334.500 125.636,334.500 125.706 C 334.500 125.776,334.580 125.833,334.678 125.833 C 334.776 125.833,335.193 126.065,335.604 126.348 C 336.015 126.631,336.460 126.820,336.593 126.770 C 336.802 126.689,336.833 119.738,336.833 73.682 C 336.833 38.531,336.889 20.652,337.000 20.583 C 337.092 20.527,337.168 20.354,337.169 20.198 C 337.175 19.584,340.317 16.882,342.042 16.009 C 342.294 15.881,342.500 15.715,342.500 15.639 C 342.500 15.562,342.605 15.500,342.734 15.500 C 343.012 15.500,344.392 14.805,344.472 14.625 C 344.503 14.556,344.613 14.500,344.717 14.500 C 345.183 14.500,346.494 13.732,346.497 13.458 C 346.501 13.107,316.460 12.993,316.244 13.344 C 316.111 13.558,316.628 14.167,316.942 14.167 C 317.066 14.167,317.167 14.223,317.167 14.293 C 317.167 14.362,317.373 14.512,317.625 14.625 C 318.020 14.804,319.558 15.893,320.333 16.545 C 320.471 16.660,320.918 17.016,321.327 17.336 C 322.597 18.329,323.833 19.761,323.833 20.240 C 323.833 20.383,323.908 20.500,324.000 20.500 C 324.111 20.500,324.167 32.594,324.167 56.448 L 324.167 92.396 323.833 92.038 C 323.650 91.842,323.500 91.638,323.500 91.586 C 323.500 91.480,321.933 89.432,321.466 88.927 C 321.301 88.749,321.167 88.542,321.167 88.467 C 321.167 88.392,320.942 88.095,320.667 87.807 C 320.392 87.519,320.167 87.219,320.167 87.140 C 320.167 87.062,319.942 86.762,319.667 86.474 C 319.392 86.186,319.167 85.886,319.167 85.807 C 319.167 85.728,318.942 85.428,318.667 85.140 C 318.392 84.853,318.167 84.543,318.167 84.453 C 318.167 84.363,318.032 84.168,317.867 84.020 C 317.702 83.871,317.387 83.487,317.167 83.167 C 316.946 82.846,316.721 82.546,316.667 82.500 C 316.612 82.454,316.387 82.154,316.167 81.833 C 315.946 81.512,315.721 81.212,315.667 81.167 C 315.612 81.121,315.387 80.821,315.167 80.500 C 314.946 80.179,314.721 79.879,314.667 79.833 C 314.612 79.787,314.387 79.487,314.167 79.167 C 313.946 78.846,313.631 78.462,313.466 78.314 C 313.301 78.166,313.167 77.997,313.167 77.940 C 313.167 77.812,312.135 76.416,311.577 75.789 C 311.351 75.535,311.167 75.263,311.167 75.184 C 311.167 75.105,311.044 74.939,310.894 74.814 C 310.744 74.690,310.111 73.903,309.486 73.065 C 308.862 72.228,308.235 71.426,308.093 71.283 C 307.950 71.140,307.833 70.955,307.833 70.870 C 307.833 70.785,307.627 70.495,307.375 70.224 C 307.123 69.953,306.657 69.398,306.340 68.991 C 306.022 68.583,305.703 68.225,305.631 68.194 C 305.559 68.164,305.500 68.051,305.499 67.944 C 305.499 67.837,305.291 67.525,305.038 67.250 C 304.785 66.975,304.147 66.173,303.621 65.469 C 303.094 64.764,302.570 64.087,302.457 63.965 C 302.343 63.842,301.990 63.406,301.673 62.996 C 301.355 62.586,301.037 62.225,300.965 62.194 C 300.892 62.164,300.833 62.025,300.833 61.886 C 300.833 61.747,300.608 61.424,300.333 61.167 C 300.058 60.910,299.832 60.636,299.829 60.558 C 299.827 60.480,299.563 60.125,299.242 59.768 C 298.921 59.412,298.531 58.906,298.376 58.643 C 298.222 58.381,298.036 58.167,297.964 58.167 C 297.892 58.167,297.833 58.073,297.833 57.958 C 297.832 57.844,297.607 57.510,297.333 57.217 C 297.058 56.924,296.833 56.620,296.833 56.540 C 296.833 56.461,296.702 56.251,296.542 56.072 C 295.900 55.360,294.833 53.874,294.833 53.693 C 294.833 53.587,294.776 53.500,294.706 53.500 C 294.636 53.500,294.393 53.200,294.167 52.833 C 293.940 52.467,293.715 52.167,293.667 52.167 C 293.618 52.167,293.393 51.867,293.167 51.500 C 292.940 51.133,292.697 50.833,292.627 50.833 C 292.557 50.833,292.500 50.721,292.500 50.585 C 292.500 50.448,292.292 50.129,292.038 49.876 C 291.785 49.624,291.472 49.210,291.344 48.958 C 291.215 48.706,291.048 48.500,290.972 48.500 C 290.896 48.500,290.833 48.387,290.833 48.248 C 290.833 48.110,290.608 47.762,290.333 47.474 C 290.058 47.186,289.833 46.866,289.833 46.762 C 289.833 46.658,289.683 46.465,289.500 46.333 C 289.317 46.201,289.167 45.976,289.167 45.833 C 289.167 45.690,289.017 45.465,288.833 45.333 C 288.650 45.201,288.500 44.996,288.500 44.878 C 288.500 44.760,288.275 44.428,288.000 44.140 C 287.725 43.853,287.500 43.516,287.500 43.392 C 287.500 43.268,287.438 43.167,287.361 43.167 C 287.285 43.167,287.117 42.960,286.988 42.708 C 286.858 42.456,286.639 42.137,286.500 42.000 C 286.361 41.862,286.142 41.544,286.012 41.292 C 285.883 41.040,285.715 40.833,285.639 40.833 C 285.562 40.833,285.500 40.740,285.500 40.625 C 285.500 40.510,285.306 40.192,285.069 39.917 C 284.832 39.642,284.516 39.210,284.366 38.958 C 284.217 38.706,284.036 38.500,283.964 38.500 C 283.892 38.500,283.833 38.367,283.833 38.203 C 283.833 38.040,283.683 37.799,283.500 37.667 C 283.317 37.535,283.167 37.345,283.167 37.245 C 283.167 37.145,283.035 36.917,282.875 36.740 C 282.715 36.562,282.477 36.210,282.347 35.958 C 282.217 35.706,282.048 35.500,281.972 35.500 C 281.896 35.500,281.833 35.406,281.833 35.292 C 281.833 35.177,281.639 34.858,281.402 34.583 C 281.165 34.308,280.849 33.877,280.700 33.625 C 280.550 33.373,280.369 33.167,280.297 33.167 C 280.225 33.167,280.167 33.068,280.167 32.948 C 280.167 32.828,280.035 32.584,279.875 32.406 C 279.715 32.229,279.477 31.877,279.347 31.625 C 279.217 31.373,279.048 31.167,278.972 31.167 C 278.896 31.167,278.833 31.068,278.833 30.948 C 278.833 30.828,278.702 30.584,278.542 30.406 C 278.381 30.229,278.144 29.877,278.014 29.625 C 277.883 29.373,277.715 29.167,277.639 29.167 C 277.562 29.167,277.500 29.068,277.500 28.948 C 277.500 28.828,277.369 28.584,277.208 28.406 C 277.048 28.229,276.810 27.877,276.680 27.625 C 276.550 27.373,276.381 27.167,276.305 27.167 C 276.229 27.167,276.167 27.068,276.167 26.948 C 276.167 26.828,276.017 26.569,275.833 26.372 C 275.650 26.175,275.497 25.955,275.493 25.882 C 275.490 25.809,275.265 25.490,274.993 25.173 C 274.722 24.856,274.500 24.499,274.500 24.381 C 274.500 24.263,274.438 24.167,274.361 24.167 C 274.285 24.167,274.117 23.960,273.988 23.708 C 273.858 23.456,273.621 23.129,273.459 22.980 C 273.298 22.832,273.167 22.595,273.167 22.453 C 273.167 22.311,273.106 22.169,273.032 22.139 C 272.845 22.062,271.833 20.560,271.833 20.359 C 271.833 20.268,271.772 20.169,271.697 20.139 C 271.622 20.108,271.233 19.596,270.833 19.000 C 270.434 18.404,270.045 17.892,269.970 17.861 C 269.895 17.831,269.833 17.733,269.833 17.645 C 269.833 17.497,268.230 15.020,268.013 14.833 C 267.960 14.787,267.810 14.544,267.680 14.292 C 267.550 14.040,267.381 13.833,267.305 13.833 C 267.229 13.833,267.167 13.683,267.167 13.500 C 267.167 13.115,240.816 12.957,240.579 13.341 M363.076 13.345 C 362.960 13.533,363.337 13.934,363.967 14.292 C 364.168 14.406,364.498 14.594,364.700 14.708 C 364.901 14.823,365.216 15.048,365.398 15.208 C 365.580 15.369,365.828 15.500,365.948 15.500 C 366.068 15.500,366.167 15.575,366.167 15.667 C 366.167 15.758,366.260 15.833,366.375 15.833 C 366.490 15.833,366.912 16.133,367.313 16.500 C 367.714 16.867,368.115 17.167,368.204 17.167 C 368.457 17.167,370.500 19.326,370.500 19.594 C 370.500 19.726,370.556 19.834,370.625 19.835 C 371.162 19.840,371.167 20.249,371.167 66.523 C 371.167 96.870,371.110 112.348,371.000 112.417 C 370.908 112.473,370.833 112.665,370.833 112.843 C 370.833 113.021,370.758 113.167,370.667 113.167 C 370.575 113.167,370.500 113.289,370.500 113.439 C 370.500 113.588,370.365 113.832,370.200 113.980 C 370.036 114.129,369.718 114.513,369.494 114.833 C 368.968 115.586,366.919 117.635,366.167 118.160 C 365.846 118.384,365.471 118.687,365.333 118.833 C 365.196 118.980,364.821 119.282,364.500 119.506 C 363.516 120.191,363.167 120.547,363.167 120.863 C 363.167 121.213,396.366 121.352,396.581 121.003 C 396.727 120.768,396.365 120.167,396.077 120.167 C 395.943 120.167,395.833 120.092,395.833 120.000 C 395.833 119.908,395.735 119.833,395.615 119.833 C 395.495 119.833,395.251 119.700,395.073 119.537 C 394.895 119.374,394.488 119.059,394.167 118.837 C 393.846 118.615,393.546 118.388,393.500 118.333 C 393.454 118.279,393.154 118.053,392.833 117.832 C 391.969 117.235,388.833 114.034,388.833 113.747 C 388.833 113.611,388.777 113.499,388.708 113.499 C 388.559 113.497,388.167 112.690,388.167 112.383 C 388.167 112.264,388.092 112.167,388.000 112.167 C 387.889 112.167,387.833 96.871,387.833 66.612 L 387.833 21.056 388.231 20.271 C 388.790 19.167,390.042 17.852,391.500 16.838 C 391.821 16.615,392.121 16.392,392.167 16.341 C 392.212 16.291,392.400 16.168,392.583 16.068 C 393.376 15.634,393.755 15.411,393.833 15.333 C 393.879 15.287,394.096 15.149,394.315 15.026 C 394.533 14.903,394.983 14.647,395.315 14.457 C 395.646 14.267,396.127 14.005,396.383 13.873 C 396.640 13.741,396.821 13.547,396.786 13.442 C 396.698 13.176,363.240 13.080,363.076 13.345 M189.250 24.333 C 189.307 24.425,189.686 24.500,190.093 24.500 C 190.500 24.500,190.833 24.575,190.833 24.667 C 190.833 24.758,191.043 24.833,191.300 24.833 C 191.557 24.833,191.838 24.895,191.925 24.971 C 192.012 25.047,192.402 25.209,192.792 25.331 C 193.181 25.453,193.500 25.616,193.500 25.693 C 193.500 25.770,193.614 25.833,193.752 25.833 C 194.006 25.833,194.500 26.080,194.987 26.449 C 195.132 26.559,195.700 26.986,196.250 27.399 C 197.589 28.404,198.167 28.922,198.167 29.119 C 198.167 29.208,198.325 29.425,198.519 29.599 C 198.713 29.774,199.102 30.254,199.383 30.667 C 199.665 31.079,199.938 31.454,199.990 31.500 C 200.177 31.663,201.167 33.718,201.167 33.942 C 201.167 34.068,201.242 34.320,201.333 34.502 C 201.425 34.684,201.575 34.982,201.667 35.164 C 201.758 35.346,201.833 35.744,201.833 36.048 C 201.833 36.351,201.902 36.671,201.985 36.758 C 202.311 37.098,202.632 42.434,202.344 42.723 C 202.247 42.820,202.167 43.293,202.167 43.773 C 202.167 44.254,202.092 44.693,202.000 44.750 C 201.908 44.807,201.833 45.074,201.833 45.343 C 201.833 45.613,201.758 45.833,201.667 45.833 C 201.575 45.833,201.500 45.947,201.500 46.086 C 201.500 46.224,201.433 46.468,201.352 46.627 C 201.270 46.786,201.029 47.292,200.815 47.750 C 199.831 49.866,196.912 53.344,195.342 54.271 C 195.062 54.437,194.833 54.631,194.833 54.703 C 194.833 54.775,194.751 54.833,194.651 54.833 C 194.550 54.833,194.249 54.989,193.982 55.180 C 193.216 55.725,190.985 56.833,190.653 56.833 C 190.488 56.833,190.307 56.908,190.250 57.000 C 190.183 57.108,186.470 57.167,179.657 57.167 L 169.167 57.167 169.167 40.667 L 169.167 24.167 179.157 24.167 C 185.637 24.167,189.183 24.225,189.250 24.333 M194.459 67.078 C 194.850 67.146,195.210 67.269,195.261 67.351 C 195.312 67.433,195.532 67.500,195.750 67.500 C 195.968 67.500,196.193 67.575,196.250 67.667 C 196.307 67.758,196.532 67.833,196.750 67.833 C 196.968 67.833,197.193 67.908,197.250 68.000 C 197.307 68.092,197.500 68.167,197.679 68.167 C 197.858 68.167,198.135 68.232,198.294 68.312 C 199.533 68.937,200.064 69.167,200.266 69.167 C 200.395 69.167,200.501 69.223,200.501 69.292 C 200.503 69.441,201.310 69.833,201.617 69.833 C 201.736 69.833,201.833 69.908,201.833 70.000 C 201.833 70.092,201.932 70.167,202.052 70.167 C 202.172 70.167,202.431 70.317,202.628 70.500 C 202.825 70.683,203.102 70.833,203.243 70.833 C 203.384 70.833,203.500 70.896,203.500 70.972 C 203.500 71.048,203.706 71.216,203.958 71.345 C 205.126 71.942,208.497 75.043,209.381 76.333 C 209.663 76.746,209.937 77.121,209.989 77.167 C 210.150 77.309,210.682 78.235,210.780 78.542 C 210.831 78.702,210.938 78.833,211.019 78.833 C 211.100 78.833,211.167 78.983,211.167 79.167 C 211.167 79.350,211.242 79.500,211.333 79.500 C 211.425 79.500,211.500 79.614,211.500 79.752 C 211.500 79.891,211.575 80.154,211.667 80.336 C 211.758 80.518,211.908 80.816,212.000 80.998 C 212.092 81.180,212.167 81.513,212.167 81.738 C 212.167 81.963,212.234 82.188,212.316 82.239 C 212.693 82.472,213.041 90.167,212.673 90.167 C 212.578 90.167,212.500 90.500,212.500 90.907 C 212.500 91.314,212.425 91.693,212.333 91.750 C 212.242 91.807,212.167 92.069,212.167 92.333 C 212.167 92.598,212.092 92.860,212.000 92.917 C 211.908 92.973,211.833 93.150,211.833 93.310 C 211.833 93.675,211.459 94.497,211.292 94.499 C 211.223 94.499,211.167 94.598,211.167 94.717 C 211.167 95.023,210.775 95.830,210.625 95.832 C 210.556 95.833,210.500 95.983,210.500 96.167 C 210.500 96.350,210.425 96.500,210.333 96.500 C 210.242 96.500,210.167 96.598,210.167 96.719 C 210.167 96.839,210.017 97.098,209.833 97.295 C 209.650 97.492,209.500 97.734,209.500 97.834 C 209.500 97.934,209.318 98.198,209.095 98.420 C 208.872 98.643,208.478 99.104,208.220 99.444 C 207.601 100.259,206.328 101.530,205.544 102.114 C 205.199 102.371,204.879 102.623,204.833 102.674 C 204.787 102.725,204.487 102.948,204.167 103.170 C 203.846 103.392,203.438 103.708,203.260 103.870 C 203.083 104.033,202.839 104.167,202.719 104.167 C 202.598 104.167,202.499 104.223,202.499 104.292 C 202.498 104.360,202.329 104.499,202.124 104.600 C 201.404 104.954,200.249 105.584,200.167 105.669 C 200.121 105.716,199.708 105.931,199.250 106.147 C 198.792 106.363,198.128 106.681,197.776 106.853 C 197.424 107.026,196.992 107.167,196.818 107.167 C 196.643 107.167,196.500 107.242,196.500 107.333 C 196.500 107.425,196.317 107.500,196.093 107.500 C 195.869 107.500,195.640 107.575,195.583 107.667 C 195.527 107.758,195.264 107.833,195.000 107.833 C 194.736 107.833,194.478 107.900,194.428 107.982 C 194.214 108.327,192.483 108.387,181.125 108.444 L 169.167 108.504 169.167 87.667 L 169.167 66.829 181.458 66.891 C 188.219 66.926,194.069 67.010,194.459 67.078 " stroke="none" fill="#045c6c" fill-rule="evenodd"></path><path id="path2" d="" stroke="none" fill="#f85c48" fill-rule="evenodd"></path><path id="path3" d="M362.833 13.500 C 362.833 13.683,362.892 13.833,362.964 13.833 C 363.036 13.833,363.095 13.683,363.095 13.500 C 363.095 13.317,363.036 13.167,362.964 13.167 C 362.892 13.167,362.833 13.317,362.833 13.500 M368.167 17.293 C 368.167 17.363,368.317 17.513,368.500 17.628 C 368.888 17.870,368.939 17.749,368.595 17.405 C 368.333 17.142,368.167 17.099,368.167 17.293 M321.500 17.541 C 321.500 17.667,323.042 19.180,323.106 19.116 C 323.170 19.052,322.232 18.034,321.792 17.688 C 321.631 17.562,321.500 17.496,321.500 17.541 M148.500 17.902 C 148.500 18.049,149.673 19.216,149.747 19.142 C 149.816 19.072,149.193 18.347,148.786 18.021 C 148.629 17.895,148.500 17.842,148.500 17.902 M246.167 17.903 C 246.167 18.078,246.669 18.554,246.759 18.463 C 246.801 18.421,246.685 18.251,246.501 18.084 C 246.317 17.918,246.167 17.836,246.167 17.903 M370.039 19.167 C 370.153 19.350,370.304 19.500,370.375 19.500 C 370.445 19.500,370.409 19.350,370.295 19.167 C 370.180 18.983,370.029 18.833,369.958 18.833 C 369.888 18.833,369.924 18.983,370.039 19.167 M248.169 66.302 C 248.168 96.516,248.222 111.652,248.333 111.583 C 248.560 111.444,248.560 21.517,248.333 21.167 C 248.229 21.005,248.171 36.939,248.169 66.302 M196.833 27.893 C 196.833 28.087,198.015 29.208,198.114 29.108 C 198.165 29.057,198.100 28.919,197.971 28.800 C 197.111 28.010,196.833 27.789,196.833 27.893 M213.951 52.250 C 213.403 52.937,213.532 53.042,214.105 52.375 C 214.445 51.980,214.601 51.667,214.458 51.667 C 214.435 51.667,214.207 51.929,213.951 52.250 M195.692 53.767 C 195.568 53.907,195.499 54.055,195.540 54.095 C 195.580 54.136,195.749 54.018,195.916 53.834 C 196.082 53.650,196.150 53.503,196.067 53.506 C 195.985 53.510,195.815 53.627,195.692 53.767 M211.778 54.444 C 211.427 54.766,211.170 55.059,211.207 55.095 C 211.243 55.132,211.560 54.899,211.911 54.578 C 212.262 54.256,212.519 53.963,212.482 53.927 C 212.446 53.890,212.129 54.123,211.778 54.444 M274.833 56.569 C 274.833 56.745,275.335 57.220,275.426 57.130 C 275.468 57.088,275.352 56.917,275.168 56.751 C 274.984 56.585,274.833 56.503,274.833 56.569 M276.039 58.167 C 276.153 58.350,276.304 58.500,276.375 58.500 C 276.445 58.500,276.409 58.350,276.295 58.167 C 276.180 57.983,276.029 57.833,275.958 57.833 C 275.888 57.833,275.924 57.983,276.039 58.167 M220.167 66.292 C 220.167 66.362,220.317 66.513,220.500 66.628 C 220.683 66.742,220.833 66.779,220.833 66.708 C 220.833 66.638,220.683 66.487,220.500 66.372 C 220.317 66.258,220.167 66.221,220.167 66.292 M223.705 69.833 C 223.820 70.017,223.971 70.167,224.042 70.167 C 224.112 70.167,224.076 70.017,223.961 69.833 C 223.847 69.650,223.696 69.500,223.625 69.500 C 223.555 69.500,223.591 69.650,223.705 69.833 M310.102 73.922 C 310.254 74.154,310.411 74.311,310.451 74.271 C 310.550 74.173,310.118 73.500,309.956 73.500 C 309.884 73.500,309.950 73.690,310.102 73.922 M316.372 82.167 C 316.487 82.350,316.638 82.500,316.708 82.500 C 316.779 82.500,316.742 82.350,316.628 82.167 C 316.513 81.983,316.362 81.833,316.292 81.833 C 316.221 81.833,316.258 81.983,316.372 82.167 M317.372 83.500 C 317.487 83.683,317.638 83.833,317.708 83.833 C 317.779 83.833,317.742 83.683,317.628 83.500 C 317.513 83.317,317.362 83.167,317.292 83.167 C 317.221 83.167,317.258 83.317,317.372 83.500 M318.372 84.833 C 318.487 85.017,318.638 85.167,318.708 85.167 C 318.779 85.167,318.742 85.017,318.628 84.833 C 318.513 84.650,318.362 84.500,318.292 84.500 C 318.221 84.500,318.258 84.650,318.372 84.833 M297.372 85.833 C 297.487 86.017,297.638 86.167,297.708 86.167 C 297.779 86.167,297.742 86.017,297.628 85.833 C 297.513 85.650,297.362 85.500,297.292 85.500 C 297.221 85.500,297.258 85.650,297.372 85.833 M319.372 86.167 C 319.487 86.350,319.638 86.500,319.708 86.500 C 319.779 86.500,319.742 86.350,319.628 86.167 C 319.513 85.983,319.362 85.833,319.292 85.833 C 319.221 85.833,319.258 85.983,319.372 86.167 M320.372 87.500 C 320.487 87.683,320.638 87.833,320.708 87.833 C 320.779 87.833,320.742 87.683,320.628 87.500 C 320.513 87.317,320.362 87.167,320.292 87.167 C 320.221 87.167,320.258 87.317,320.372 87.500 M321.372 88.833 C 321.487 89.017,321.638 89.167,321.708 89.167 C 321.779 89.167,321.742 89.017,321.628 88.833 C 321.513 88.650,321.362 88.500,321.292 88.500 C 321.221 88.500,321.258 88.650,321.372 88.833 M302.039 91.833 C 302.153 92.017,302.304 92.167,302.375 92.167 C 302.445 92.167,302.409 92.017,302.295 91.833 C 302.180 91.650,302.029 91.500,301.958 91.500 C 301.888 91.500,301.924 91.650,302.039 91.833 M306.039 96.833 C 306.153 97.017,306.304 97.167,306.375 97.167 C 306.445 97.167,306.409 97.017,306.295 96.833 C 306.180 96.650,306.029 96.500,305.958 96.500 C 305.888 96.500,305.924 96.650,306.039 96.833 M307.167 98.236 C 307.167 98.412,307.669 98.887,307.759 98.797 C 307.801 98.755,307.685 98.584,307.501 98.418 C 307.317 98.251,307.167 98.169,307.167 98.236 M207.513 100.029 C 207.163 100.470,207.154 100.510,207.447 100.328 C 207.809 100.102,208.252 99.494,208.043 99.509 C 207.974 99.514,207.735 99.748,207.513 100.029 M206.100 101.433 C 205.744 101.750,205.483 102.039,205.520 102.075 C 205.557 102.112,205.878 101.883,206.233 101.567 C 206.589 101.250,206.850 100.961,206.813 100.925 C 206.777 100.888,206.456 101.117,206.100 101.433 M311.167 103.236 C 311.167 103.412,311.669 103.887,311.759 103.797 C 311.801 103.755,311.685 103.584,311.501 103.418 C 311.317 103.251,311.167 103.169,311.167 103.236 M312.705 105.167 C 312.820 105.350,312.971 105.500,313.042 105.500 C 313.112 105.500,313.076 105.350,312.961 105.167 C 312.847 104.983,312.696 104.833,312.625 104.833 C 312.555 104.833,312.591 104.983,312.705 105.167 M224.039 105.500 C 223.924 105.683,223.874 105.833,223.927 105.833 C 224.052 105.833,224.500 105.386,224.500 105.262 C 224.500 105.050,224.234 105.187,224.039 105.500 M314.167 106.903 C 314.167 107.078,314.669 107.554,314.759 107.463 C 314.801 107.421,314.685 107.251,314.501 107.084 C 314.317 106.918,314.167 106.836,314.167 106.903 M221.525 108.271 C 221.309 108.501,221.165 108.720,221.204 108.759 C 221.243 108.798,221.489 108.606,221.752 108.332 C 222.014 108.058,222.159 107.838,222.073 107.844 C 221.987 107.849,221.740 108.042,221.525 108.271 M316.039 109.167 C 316.153 109.350,316.304 109.500,316.375 109.500 C 316.445 109.500,316.409 109.350,316.295 109.167 C 316.180 108.983,316.029 108.833,315.958 108.833 C 315.888 108.833,315.924 108.983,316.039 109.167 M219.036 110.504 C 218.841 110.816,218.850 110.826,219.163 110.630 C 219.348 110.515,219.500 110.363,219.500 110.293 C 219.500 110.053,219.246 110.168,219.036 110.504 M217.762 111.429 C 217.585 111.558,217.473 111.695,217.512 111.735 C 217.552 111.774,217.728 111.700,217.905 111.571 C 218.081 111.442,218.194 111.305,218.154 111.265 C 218.115 111.226,217.938 111.300,217.762 111.429 M318.500 111.914 C 319.221 112.758,319.347 112.875,319.435 112.788 C 319.523 112.699,318.974 112.104,318.405 111.672 C 318.196 111.512,318.229 111.597,318.500 111.914 M263.688 115.124 C 264.060 115.598,264.302 115.833,264.417 115.833 C 264.578 115.833,263.774 114.853,263.605 114.843 C 263.525 114.837,263.562 114.964,263.688 115.124 M148.025 115.773 C 147.719 116.094,147.498 116.387,147.536 116.425 C 147.574 116.463,147.897 116.195,148.253 115.830 C 148.609 115.465,148.830 115.172,148.742 115.178 C 148.655 115.184,148.332 115.452,148.025 115.773 M244.709 116.795 C 243.816 117.742,243.602 118.120,244.341 117.446 C 245.078 116.772,245.902 115.833,245.741 115.850 C 245.654 115.859,245.190 116.285,244.709 116.795 M323.167 116.579 C 323.167 116.724,324.391 117.831,324.467 117.755 C 324.522 117.700,323.938 117.088,323.447 116.688 C 323.293 116.562,323.167 116.513,323.167 116.579 M392.167 117.292 C 392.167 117.362,392.317 117.513,392.500 117.628 C 392.683 117.742,392.833 117.779,392.833 117.708 C 392.833 117.638,392.683 117.487,392.500 117.372 C 392.317 117.258,392.167 117.221,392.167 117.292 M366.429 117.762 C 366.252 117.891,366.140 118.029,366.179 118.068 C 366.218 118.107,366.395 118.034,366.571 117.905 C 366.748 117.776,366.860 117.638,366.821 117.599 C 366.782 117.559,366.605 117.633,366.429 117.762 M145.025 118.434 C 144.901 118.574,144.833 118.722,144.873 118.762 C 144.913 118.802,145.083 118.685,145.249 118.501 C 145.415 118.317,145.484 118.170,145.401 118.173 C 145.318 118.176,145.149 118.294,145.025 118.434 M364.762 119.095 C 364.585 119.224,364.473 119.362,364.512 119.401 C 364.552 119.441,364.728 119.367,364.905 119.238 C 365.081 119.109,365.194 118.971,365.154 118.932 C 365.115 118.893,364.938 118.966,364.762 119.095 M326.500 119.569 C 326.500 119.745,327.002 120.220,327.092 120.130 C 327.134 120.088,327.018 119.917,326.834 119.751 C 326.650 119.585,326.500 119.503,326.500 119.569 M142.375 120.416 C 142.121 120.705,142.101 121.167,142.343 121.167 C 142.440 121.167,142.470 121.087,142.410 120.989 C 142.350 120.892,142.432 120.667,142.593 120.489 C 142.754 120.312,142.817 120.170,142.734 120.173 C 142.651 120.176,142.490 120.286,142.375 120.416 M269.740 120.489 C 269.909 120.675,269.980 120.905,269.909 121.031 C 269.814 121.197,269.834 121.204,269.989 121.061 C 270.211 120.857,269.911 120.167,269.601 120.167 C 269.517 120.167,269.580 120.312,269.740 120.489 M363.042 120.416 C 362.792 120.699,362.766 121.167,363.000 121.167 C 363.092 121.167,363.167 121.032,363.167 120.867 C 363.167 120.702,363.257 120.477,363.367 120.367 C 363.477 120.257,363.495 120.170,363.408 120.173 C 363.321 120.176,363.156 120.286,363.042 120.416 M396.571 120.833 C 396.571 121.017,396.630 121.167,396.702 121.167 C 396.774 121.167,396.833 121.017,396.833 120.833 C 396.833 120.650,396.774 120.500,396.702 120.500 C 396.630 120.500,396.571 120.650,396.571 120.833 M328.500 121.293 C 328.500 121.363,328.650 121.513,328.833 121.628 C 329.221 121.870,329.273 121.749,328.929 121.405 C 328.666 121.142,328.500 121.099,328.500 121.293 " stroke="none" fill="#445c48" fill-rule="evenodd"></path><path id="path4" d="" stroke="none" fill="#045c70" fill-rule="evenodd"></path></g></svg>