<svg id="svg" version="1.1" xmlns="http://www.w3.org/2000/svg" xmlns:xlink="http://www.w3.org/1999/xlink" width="400" height="300" viewBox="0, 0, 400,300"><g id="svgg"><path id="path0" d="M200.750 18.008 C 193.394 18.102,181.564 18.266,174.462 18.372 L 161.549 18.566 160.509 20.608 L 159.468 22.651 159.874 23.763 C 160.097 24.375,160.607 25.831,161.007 27.000 C 161.786 29.277,162.832 32.296,165.255 39.250 C 166.093 41.656,167.049 44.413,167.379 45.375 C 167.709 46.337,168.496 48.587,169.127 50.375 C 169.759 52.163,170.377 53.962,170.500 54.375 C 170.623 54.788,171.241 56.587,171.872 58.375 C 173.582 63.215,174.685 66.377,175.495 68.750 C 175.893 69.919,176.684 72.169,177.252 73.750 C 177.820 75.331,178.381 76.963,178.499 77.375 C 178.616 77.787,179.110 79.250,179.596 80.625 C 182.318 88.324,182.796 89.692,183.000 90.375 C 183.123 90.787,183.741 92.588,184.373 94.375 C 185.005 96.162,185.848 98.581,186.246 99.750 C 186.644 100.919,187.432 103.169,187.997 104.750 C 188.562 106.331,189.124 107.963,189.247 108.375 C 189.370 108.787,189.987 110.588,190.618 112.375 C 191.724 115.502,192.333 117.263,193.991 122.125 C 194.413 123.362,194.917 124.769,195.111 125.250 C 195.305 125.731,195.526 126.416,195.601 126.772 C 195.692 127.198,196.152 127.675,196.953 128.173 L 198.168 128.928 199.039 128.481 C 200.408 127.779,200.911 126.749,201.724 122.981 C 201.830 122.489,201.983 121.980,202.064 121.849 C 202.220 121.596,203.582 117.070,205.592 110.125 C 205.951 108.888,206.457 107.200,206.718 106.375 C 206.980 105.550,207.390 104.200,207.630 103.375 C 207.870 102.550,208.262 101.256,208.500 100.500 C 208.738 99.744,209.112 98.506,209.331 97.750 C 209.939 95.644,210.714 93.047,211.270 91.250 C 211.547 90.356,211.920 89.119,212.100 88.500 C 212.280 87.881,212.668 86.588,212.962 85.625 C 213.257 84.662,213.892 82.525,214.375 80.875 C 214.857 79.225,215.409 77.369,215.601 76.750 C 215.793 76.131,216.196 74.781,216.497 73.750 C 216.797 72.719,217.192 71.425,217.375 70.875 C 217.558 70.325,217.956 68.975,218.261 67.875 C 218.566 66.775,219.014 65.256,219.257 64.500 C 219.500 63.744,219.894 62.450,220.133 61.625 C 220.371 60.800,220.762 59.506,221.000 58.750 C 221.238 57.994,221.612 56.756,221.831 56.000 C 222.415 53.979,223.204 51.331,223.730 49.625 C 223.985 48.800,224.390 47.450,224.630 46.625 C 224.870 45.800,225.262 44.506,225.500 43.750 C 225.738 42.994,226.112 41.756,226.331 41.000 C 226.549 40.244,226.963 38.837,227.250 37.875 C 227.537 36.913,227.951 35.506,228.169 34.750 C 228.388 33.994,228.765 32.756,229.007 32.000 C 229.250 31.244,229.867 29.163,230.380 27.375 C 230.893 25.587,231.456 23.728,231.632 23.243 L 231.951 22.361 229.711 20.056 L 227.470 17.750 220.798 17.794 C 217.128 17.818,208.106 17.915,200.750 18.008 M231.250 22.286 C 231.181 22.375,230.338 22.734,229.375 23.084 C 228.412 23.434,227.063 23.939,226.375 24.206 C 225.688 24.472,223.550 25.280,221.625 26.000 C 219.700 26.720,217.619 27.508,217.000 27.750 C 216.381 27.992,214.300 28.780,212.375 29.500 C 210.450 30.220,208.313 31.029,207.625 31.298 C 206.938 31.567,205.813 31.988,205.125 32.234 C 203.660 32.759,200.866 33.837,199.204 34.519 C 197.545 35.200,197.712 35.267,193.738 32.330 L 190.125 29.660 191.250 29.350 C 191.869 29.180,193.838 28.573,195.625 28.001 C 197.412 27.430,199.409 26.802,200.063 26.606 C 200.716 26.410,201.784 26.090,202.438 25.894 C 203.091 25.699,205.650 24.897,208.125 24.113 C 210.600 23.329,213.131 22.537,213.750 22.353 C 214.369 22.169,216.338 21.556,218.125 20.991 C 222.011 19.762,223.082 19.432,225.348 18.767 C 226.296 18.489,227.136 18.197,227.216 18.118 C 227.403 17.930,231.414 22.075,231.250 22.286 M351.750 237.132 C 346.651 237.497,347.250 237.381,347.250 238.000 C 347.250 238.422,347.417 238.500,348.313 238.500 C 351.896 238.502,351.776 237.749,351.694 259.601 C 351.612 281.447,351.882 280.122,347.500 280.124 C 343.022 280.127,343.162 280.523,342.985 267.375 C 342.827 255.669,342.861 255.945,341.287 253.425 C 337.660 247.618,326.830 249.083,323.174 255.875 C 322.784 256.598,322.770 256.507,322.760 253.313 C 322.755 251.491,322.666 250.000,322.563 250.001 C 322.459 250.002,320.575 250.169,318.375 250.373 C 316.175 250.577,314.234 250.745,314.063 250.747 C 313.196 250.755,313.796 251.693,314.768 251.849 C 316.035 252.052,316.918 252.616,317.388 253.525 C 317.985 254.680,317.920 277.760,317.317 278.782 C 316.531 280.111,313.588 280.620,311.047 279.866 C 308.895 279.227,308.967 279.678,308.989 266.990 C 309.011 254.829,308.954 254.334,307.293 252.258 C 305.109 249.531,298.167 248.705,292.620 250.512 C 286.526 252.498,283.852 259.000,289.130 259.000 C 291.212 259.000,292.000 258.164,292.000 255.955 C 292.000 252.726,294.223 250.946,298.255 250.946 C 302.989 250.946,304.458 253.079,304.192 259.569 C 304.047 263.105,304.605 262.620,300.125 263.105 C 293.233 263.851,289.339 265.070,287.087 267.189 C 283.059 270.978,283.880 278.198,288.625 280.708 C 290.521 281.711,296.174 281.691,298.250 280.674 C 300.327 279.657,302.101 278.409,303.535 276.957 L 304.195 276.289 304.348 277.051 C 304.431 277.470,304.500 278.168,304.500 278.603 C 304.500 279.109,304.761 279.706,305.222 280.259 L 305.945 281.125 316.597 281.195 C 326.720 281.262,327.250 281.243,327.250 280.815 C 327.250 280.462,326.921 280.302,325.727 280.075 C 322.866 279.531,322.750 279.110,322.750 269.300 C 322.751 259.866,323.168 257.772,325.675 254.617 C 328.702 250.810,334.881 250.683,336.919 254.386 C 338.320 256.931,338.929 275.792,337.700 278.547 C 337.292 279.460,335.671 280.250,334.205 280.250 C 333.917 280.250,333.750 280.433,333.750 280.750 C 333.750 281.244,333.917 281.250,347.250 281.250 C 360.583 281.250,360.750 281.244,360.750 280.750 C 360.750 280.433,360.583 280.250,360.295 280.250 C 358.820 280.250,357.208 279.461,356.817 278.547 C 356.350 277.457,356.028 270.797,356.429 270.535 C 356.564 270.447,357.646 269.277,358.835 267.935 C 360.023 266.594,361.054 265.469,361.125 265.435 C 361.238 265.383,361.661 265.983,362.616 267.551 C 366.893 274.573,368.629 277.501,369.518 279.188 L 370.604 281.250 374.694 281.250 C 378.729 281.250,378.784 281.243,378.705 280.716 C 378.647 280.327,378.308 280.082,377.456 279.811 C 375.880 279.310,374.595 278.064,372.877 275.375 C 372.087 274.137,371.186 272.731,370.875 272.250 C 370.564 271.769,369.777 270.531,369.126 269.500 C 368.475 268.469,367.505 266.975,366.971 266.180 C 366.437 265.385,366.000 264.687,366.000 264.630 C 366.000 264.572,365.654 264.013,365.232 263.387 L 364.464 262.249 364.964 261.614 C 368.580 257.016,373.108 253.180,376.024 252.242 C 377.348 251.817,377.750 251.578,377.750 251.219 C 377.750 250.772,377.433 250.750,371.000 250.750 C 364.469 250.750,364.250 250.766,364.250 251.239 C 364.250 251.606,364.482 251.769,365.188 251.897 C 369.300 252.643,369.175 254.516,364.688 259.386 C 363.416 260.768,361.419 262.947,360.250 264.231 C 359.081 265.514,357.695 267.027,357.170 267.594 L 356.216 268.625 356.363 254.000 C 356.444 245.956,356.575 238.784,356.654 238.063 C 356.765 237.049,356.722 236.758,356.462 236.784 C 356.276 236.803,354.156 236.960,351.750 237.132 M21.500 238.375 L 21.500 239.250 22.713 239.250 C 24.233 239.250,25.552 240.060,25.782 241.134 C 26.068 242.469,26.021 276.540,25.731 277.582 C 25.415 278.720,24.047 279.486,22.313 279.495 C 21.266 279.500,21.250 279.513,21.250 280.375 L 21.250 281.250 29.875 281.250 L 38.500 281.250 38.500 280.410 L 38.500 279.569 37.041 279.437 C 33.605 279.126,33.500 278.840,33.500 269.783 L 33.500 263.000 35.188 262.993 C 48.536 262.934,53.615 259.246,53.597 249.625 C 53.584 242.628,51.249 239.601,44.627 238.001 C 42.724 237.541,41.704 237.500,32.028 237.500 L 21.500 237.500 21.500 238.375 M247.250 237.964 C 247.250 238.350,247.479 238.492,248.313 238.623 C 250.063 238.898,250.916 239.290,251.344 240.015 C 252.038 241.190,251.955 277.922,251.256 278.810 C 250.765 279.434,249.165 280.000,247.889 280.000 C 247.374 280.000,247.250 280.121,247.250 280.625 L 247.250 281.250 257.392 281.250 C 268.224 281.250,271.925 280.970,274.219 279.974 C 274.821 279.714,275.418 279.500,275.545 279.500 C 277.337 279.500,280.685 275.499,281.403 272.500 C 283.218 264.918,278.661 259.129,269.875 257.852 L 268.625 257.671 270.500 257.343 C 276.660 256.267,280.065 252.763,280.065 247.500 C 280.065 242.504,277.531 239.689,271.500 237.986 C 269.329 237.373,247.250 237.353,247.250 237.964 M268.750 239.759 C 273.181 241.299,275.079 244.633,274.269 249.453 C 273.345 254.954,270.419 256.669,261.500 256.934 L 257.125 257.064 257.125 247.998 L 257.125 238.932 262.125 239.063 C 266.455 239.176,267.343 239.269,268.750 239.759 M40.343 239.882 C 44.771 241.326,46.848 246.612,45.643 253.375 C 44.700 258.668,42.477 260.498,36.692 260.741 L 33.509 260.875 33.442 250.037 L 33.375 239.200 36.125 239.302 C 37.906 239.368,39.392 239.572,40.343 239.882 M201.731 241.164 C 201.469 241.234,201.229 241.829,201.012 242.947 C 200.259 246.824,198.170 249.659,195.615 250.271 C 194.933 250.434,194.234 250.606,194.063 250.651 C 193.878 250.700,193.750 251.147,193.750 251.742 L 193.750 252.750 195.355 252.750 L 196.959 252.750 197.042 265.063 L 197.125 277.375 197.711 278.500 C 200.122 283.132,207.439 283.543,212.721 279.343 C 212.774 279.300,212.676 278.925,212.503 278.508 C 212.193 277.760,211.444 277.484,211.125 278.001 C 210.942 278.296,209.145 279.141,208.192 279.380 C 207.012 279.677,205.591 278.648,205.001 277.070 C 204.526 275.802,204.500 275.126,204.500 264.241 L 204.500 252.750 208.000 252.750 L 211.500 252.750 211.500 251.625 L 211.500 250.500 208.000 250.500 L 204.500 250.500 204.500 245.750 L 204.500 241.000 203.313 241.029 C 202.659 241.045,201.948 241.106,201.731 241.164 M100.375 249.850 C 98.554 250.297,94.750 253.186,94.750 254.123 C 94.750 254.218,94.537 254.566,94.278 254.897 C 93.805 255.497,93.805 255.496,93.712 252.766 C 93.660 251.264,93.552 249.969,93.471 249.887 C 93.313 249.730,84.422 250.155,83.063 250.385 C 81.704 250.615,81.836 252.250,83.213 252.250 C 86.453 252.250,86.500 252.444,86.500 265.793 C 86.500 279.140,86.417 279.500,83.341 279.500 L 82.000 279.500 82.000 280.375 L 82.000 281.250 90.250 281.250 L 98.500 281.250 98.500 280.375 L 98.500 279.500 97.238 279.500 C 94.011 279.500,93.898 279.175,93.799 269.562 C 93.706 260.564,93.975 258.637,95.686 256.053 C 97.529 253.270,99.347 253.296,100.166 256.117 C 101.148 259.500,107.250 257.864,107.250 254.218 C 107.250 250.896,104.146 248.923,100.375 249.850 M128.000 249.852 C 125.791 250.255,123.926 251.308,122.063 253.206 L 120.500 254.798 120.500 252.250 L 120.500 249.703 118.188 249.846 C 116.916 249.925,114.581 250.052,113.000 250.129 C 108.855 250.332,108.750 250.363,108.750 251.395 C 108.750 252.227,108.777 252.250,109.758 252.250 C 112.974 252.250,113.000 252.357,113.000 265.723 C 113.000 279.392,112.975 279.500,109.762 279.500 L 108.500 279.500 108.500 280.375 L 108.500 281.250 116.625 281.250 L 124.750 281.250 124.750 280.375 L 124.750 279.500 123.484 279.500 C 120.513 279.500,120.499 279.450,120.505 268.700 C 120.511 258.857,120.647 257.941,122.465 255.469 C 124.908 252.147,129.031 251.673,130.797 254.510 C 131.842 256.187,132.027 258.398,131.949 268.252 C 131.860 279.515,131.864 279.500,128.863 279.500 C 127.758 279.500,127.750 279.506,127.750 280.375 L 127.750 281.250 135.750 281.250 L 143.750 281.250 143.750 280.375 L 143.750 279.500 142.356 279.500 C 139.342 279.500,139.153 278.716,139.307 266.875 C 139.414 258.714,139.473 258.344,141.099 255.804 C 143.874 251.467,148.954 251.515,150.354 255.891 C 150.763 257.168,150.845 258.409,150.947 264.775 C 151.163 278.324,150.919 279.500,147.894 279.500 L 146.500 279.500 146.500 280.375 L 146.500 281.250 154.625 281.250 L 162.750 281.250 162.750 280.375 L 162.750 279.500 161.484 279.500 C 158.437 279.500,158.441 279.515,158.250 266.500 L 158.095 255.875 157.404 254.461 C 154.167 247.832,142.832 248.064,139.332 254.832 L 138.924 255.622 138.689 254.998 C 137.022 250.579,133.449 248.859,128.000 249.852 M175.875 249.782 C 166.821 250.764,161.272 259.460,169.239 260.182 C 172.257 260.456,173.135 259.716,173.653 256.463 C 173.858 255.177,174.223 253.731,174.465 253.250 C 175.626 250.937,180.224 250.522,181.590 252.607 C 182.702 254.304,183.303 262.749,182.313 262.750 C 169.187 262.765,161.987 267.981,164.106 275.941 C 165.962 282.913,175.768 284.387,181.743 278.592 C 182.799 277.567,183.000 277.545,183.000 278.453 C 183.000 280.393,185.143 281.250,189.992 281.250 L 193.750 281.250 193.750 280.523 C 193.750 279.843,193.672 279.786,192.525 279.628 C 191.688 279.513,191.113 279.261,190.712 278.834 L 190.125 278.209 190.109 267.542 C 190.091 255.848,189.992 254.925,188.550 253.000 C 186.460 250.208,182.117 249.106,175.875 249.782 M225.875 249.882 C 224.500 250.061,222.873 250.394,222.260 250.621 C 215.118 253.265,213.641 260.238,220.221 260.249 C 222.837 260.253,223.836 259.230,224.115 256.263 C 224.459 252.605,226.037 251.046,229.137 251.303 C 230.776 251.439,231.673 252.020,232.370 253.397 C 233.034 254.710,233.295 262.750,232.673 262.750 C 220.982 262.750,214.250 266.666,214.250 273.467 C 214.250 282.377,224.844 285.281,232.313 278.419 C 233.124 277.674,233.250 277.624,233.250 278.053 C 233.250 280.298,235.369 281.250,240.367 281.250 L 244.250 281.250 244.250 280.500 C 244.250 279.889,244.146 279.750,243.688 279.749 C 240.372 279.740,240.375 279.753,240.375 266.750 L 240.375 255.875 239.599 254.237 C 237.771 250.379,233.196 248.927,225.875 249.882 M64.500 249.997 C 63.254 250.243,61.676 250.848,60.066 251.698 C 51.695 256.116,50.921 273.019,58.817 278.978 C 66.070 284.452,76.235 282.574,80.608 274.952 L 81.281 273.779 80.508 273.379 C 79.606 272.912,79.389 273.003,78.839 274.078 C 77.307 277.075,73.462 279.512,70.303 279.490 C 65.367 279.455,62.039 274.896,61.595 267.563 L 61.425 264.750 71.374 264.750 L 81.324 264.750 81.181 262.548 C 80.570 253.112,73.953 248.134,64.500 249.997 M69.532 251.603 C 71.673 252.500,73.068 255.576,73.368 260.063 L 73.548 262.750 67.517 262.750 L 61.486 262.750 61.645 261.063 C 62.310 254.024,65.675 249.987,69.532 251.603 M269.375 259.500 C 270.337 259.803,271.303 260.208,271.520 260.400 C 271.737 260.593,271.996 260.750,272.096 260.750 C 272.364 260.750,273.712 262.243,274.354 263.250 C 276.702 266.936,275.951 274.195,272.941 276.893 C 270.624 278.969,268.429 279.500,262.161 279.500 L 257.125 279.500 257.125 269.091 L 257.125 258.683 262.375 258.816 C 266.841 258.930,267.886 259.032,269.375 259.500 M304.171 267.813 C 303.957 273.423,303.409 275.132,301.175 277.151 C 295.139 282.607,288.045 278.550,290.104 270.819 C 291.242 266.544,295.252 264.546,303.721 264.036 L 304.317 264.000 304.171 267.813 M182.750 267.603 C 182.750 274.398,181.406 277.629,178.082 278.820 C 174.255 280.192,171.500 277.487,171.500 272.358 C 171.500 267.528,173.851 265.706,181.750 264.420 C 182.094 264.364,182.459 264.303,182.563 264.284 C 182.666 264.265,182.750 265.759,182.750 267.603 M233.000 268.508 C 233.000 274.738,231.969 277.241,228.806 278.689 C 224.839 280.505,222.152 278.063,222.135 272.625 C 222.118 267.297,224.248 265.505,231.875 264.431 C 232.287 264.372,232.709 264.308,232.813 264.287 C 232.916 264.267,233.000 266.166,233.000 268.508 " stroke="none" fill="#c2292f" fill-rule="evenodd"></path><path id="path1" d="M237.225 59.185 C 236.895 59.427,236.206 59.838,235.695 60.098 C 235.183 60.358,234.823 60.666,234.895 60.783 C 234.967 60.899,234.860 60.931,234.657 60.853 C 234.076 60.630,233.318 61.595,233.138 62.786 C 232.981 63.825,232.387 66.460,231.609 69.559 C 231.412 70.347,231.250 71.222,231.250 71.501 C 231.250 71.781,231.033 72.824,230.768 73.818 C 230.502 74.812,230.100 76.525,229.873 77.625 C 229.646 78.725,229.255 80.525,229.003 81.625 C 228.752 82.725,228.375 84.412,228.165 85.375 C 226.980 90.826,226.651 92.314,226.235 94.125 C 225.982 95.225,225.591 96.969,225.365 98.000 C 225.139 99.031,224.750 100.775,224.500 101.875 C 224.250 102.975,223.873 104.662,223.662 105.625 C 223.452 106.588,223.054 108.388,222.779 109.625 C 222.505 110.862,222.099 112.719,221.877 113.750 C 221.656 114.781,221.258 116.581,220.994 117.750 C 220.025 122.034,219.550 124.169,219.131 126.125 C 218.895 127.225,218.499 129.025,218.249 130.125 C 217.635 132.835,217.127 135.145,216.490 138.125 C 216.196 139.500,215.808 141.244,215.628 142.000 C 215.448 142.756,215.054 144.500,214.753 145.875 C 214.451 147.250,214.003 149.275,213.757 150.375 C 213.511 151.475,213.117 153.275,212.881 154.375 C 212.645 155.475,212.249 157.275,211.999 158.375 C 211.750 159.475,211.373 161.162,211.162 162.125 C 210.952 163.088,210.541 164.944,210.250 166.250 C 209.959 167.556,209.548 169.412,209.338 170.375 C 209.127 171.338,208.749 173.025,208.499 174.125 C 208.248 175.225,207.800 177.250,207.503 178.625 C 206.879 181.509,206.507 183.183,205.754 186.500 C 205.458 187.806,205.044 189.662,204.835 190.625 C 204.625 191.588,204.250 193.275,204.001 194.375 C 203.751 195.475,203.355 197.275,203.119 198.375 C 202.683 200.412,202.140 202.846,201.226 206.875 C 200.945 208.113,200.548 209.912,200.343 210.875 C 200.138 211.838,199.869 213.088,199.745 213.655 C 199.491 214.816,200.399 217.989,200.840 217.479 C 200.890 217.422,201.440 215.856,202.064 214.000 C 203.157 210.747,208.070 196.390,210.919 188.125 C 211.677 185.925,212.500 183.506,212.747 182.750 C 212.995 181.994,214.625 177.213,216.370 172.125 C 218.115 167.037,220.952 158.769,222.673 153.750 C 224.395 148.731,225.951 144.175,226.132 143.625 C 226.313 143.075,227.716 138.969,229.252 134.500 C 234.593 118.953,238.306 108.119,238.632 107.125 C 238.813 106.575,240.215 102.469,241.748 98.000 C 243.281 93.531,244.773 89.157,245.063 88.280 L 245.592 86.684 249.434 84.819 C 253.170 83.005,253.267 82.938,252.928 82.414 C 252.736 82.118,249.507 77.037,245.752 71.125 C 236.874 57.143,237.951 58.652,237.225 59.185 M285.500 89.641 C 282.080 89.995,274.138 90.694,270.000 91.004 C 266.935 91.234,258.438 91.957,256.622 92.143 C 255.383 92.270,255.363 92.286,254.825 93.573 C 253.611 96.477,251.960 100.363,250.127 104.625 C 249.063 107.100,247.178 111.487,245.938 114.375 C 244.698 117.263,242.693 121.931,241.483 124.750 C 240.272 127.569,237.244 134.637,234.753 140.457 C 232.262 146.277,230.066 151.395,229.874 151.832 C 229.681 152.268,228.516 154.988,227.283 157.875 C 224.002 165.561,220.258 174.300,220.000 174.875 C 219.780 175.366,217.170 181.454,212.713 191.875 C 208.560 201.584,206.297 206.847,204.111 211.875 C 201.799 217.195,201.513 218.100,202.208 217.901 C 202.438 217.836,203.099 217.646,203.679 217.479 C 204.259 217.312,204.681 217.090,204.616 216.986 C 204.552 216.882,204.704 216.850,204.955 216.916 C 205.444 217.044,208.067 213.329,207.938 212.690 C 207.904 212.517,208.012 212.402,208.180 212.435 C 208.571 212.512,209.078 211.579,208.848 211.206 C 208.743 211.037,208.784 210.992,208.948 211.093 C 209.311 211.317,211.585 207.847,211.347 207.433 C 211.249 207.263,211.259 207.206,211.368 207.304 C 211.477 207.402,211.776 207.216,212.033 206.890 C 212.542 206.242,212.645 205.881,212.250 206.125 C 211.843 206.376,211.965 206.090,212.423 205.718 C 212.710 205.485,212.786 205.475,212.658 205.688 C 212.555 205.859,212.522 206.000,212.584 206.000 C 212.888 206.000,214.268 203.481,214.107 203.220 C 213.996 203.041,214.029 202.989,214.192 203.089 C 214.436 203.240,217.000 199.744,217.000 199.260 C 217.000 199.151,217.174 198.917,217.386 198.741 C 217.599 198.564,217.713 198.263,217.639 198.072 C 217.566 197.881,217.605 197.785,217.726 197.860 C 218.033 198.050,218.809 196.798,218.597 196.454 C 218.495 196.290,218.534 196.242,218.692 196.339 C 219.041 196.555,220.571 194.296,220.392 193.829 C 220.317 193.634,220.358 193.537,220.483 193.615 C 220.792 193.806,222.300 191.534,222.090 191.193 C 221.995 191.040,222.038 190.994,222.189 191.087 C 222.526 191.295,224.074 188.822,223.843 188.448 C 223.743 188.286,223.787 188.244,223.950 188.344 C 224.309 188.566,225.102 187.367,224.858 186.972 C 224.744 186.789,224.779 186.738,224.946 186.842 C 225.311 187.067,228.587 182.101,228.348 181.685 C 228.250 181.515,228.259 181.456,228.368 181.554 C 228.636 181.796,229.575 180.573,229.373 180.246 C 229.285 180.104,229.323 180.019,229.457 180.056 C 229.830 180.161,231.306 178.005,231.146 177.589 C 231.069 177.388,231.108 177.287,231.233 177.365 C 231.359 177.442,231.807 176.992,232.230 176.365 C 233.058 175.139,233.165 174.868,232.711 175.149 C 232.527 175.263,232.491 175.217,232.611 175.022 C 232.715 174.854,232.860 174.777,232.933 174.850 C 233.091 175.008,234.000 173.904,234.000 173.554 C 234.000 173.420,234.174 173.167,234.386 172.991 C 234.599 172.814,234.713 172.513,234.639 172.322 C 234.566 172.131,234.605 172.035,234.726 172.110 C 235.033 172.300,235.809 171.048,235.597 170.704 C 235.492 170.536,235.535 170.492,235.702 170.596 C 235.868 170.698,236.249 170.332,236.638 169.697 C 236.999 169.107,237.514 168.313,237.783 167.932 C 238.053 167.551,238.194 167.112,238.098 166.956 C 237.997 166.793,238.034 166.741,238.184 166.834 C 238.528 167.047,239.322 165.824,239.095 165.430 C 238.999 165.262,239.013 165.210,239.128 165.314 C 239.409 165.569,241.047 163.232,240.884 162.809 C 240.814 162.625,240.862 162.540,240.992 162.620 C 241.321 162.823,242.085 161.590,241.858 161.222 C 241.744 161.038,241.779 160.988,241.948 161.093 C 242.113 161.195,242.692 160.531,243.387 159.444 C 244.027 158.444,244.764 157.320,245.025 156.948 C 245.565 156.177,245.633 155.889,245.211 156.149 C 245.031 156.260,244.991 156.217,245.104 156.035 C 245.203 155.874,245.377 155.799,245.490 155.869 C 245.787 156.053,246.553 154.788,246.347 154.454 C 246.247 154.292,246.284 154.242,246.436 154.335 C 246.794 154.557,248.343 152.108,248.105 151.696 C 248.003 151.520,248.012 151.458,248.124 151.560 C 248.237 151.662,248.480 151.620,248.664 151.467 C 249.074 151.127,249.114 150.650,248.711 150.899 C 248.527 151.013,248.491 150.967,248.611 150.772 C 248.715 150.604,248.860 150.527,248.933 150.600 C 249.094 150.760,250.000 149.651,250.000 149.294 C 250.000 149.155,250.096 149.004,250.213 148.958 C 250.624 148.797,251.766 146.728,251.595 146.452 C 251.495 146.290,251.535 146.242,251.692 146.339 C 251.941 146.493,253.500 144.492,253.500 144.018 C 253.500 143.904,253.674 143.667,253.886 143.491 C 254.099 143.314,254.205 142.994,254.123 142.780 C 254.041 142.566,254.051 142.467,254.145 142.562 C 254.405 142.821,255.309 141.548,255.103 141.214 C 254.997 141.043,255.031 140.990,255.184 141.084 C 255.328 141.173,255.626 140.969,255.848 140.632 C 256.322 139.908,256.362 139.651,255.961 139.899 C 255.777 140.013,255.741 139.967,255.861 139.772 C 255.965 139.604,256.114 139.531,256.193 139.610 C 256.424 139.841,258.025 137.426,257.884 137.059 C 257.814 136.875,257.862 136.790,257.992 136.870 C 258.321 137.073,259.085 135.840,258.858 135.472 C 258.744 135.288,258.779 135.238,258.948 135.343 C 259.311 135.567,261.585 132.097,261.347 131.683 C 261.249 131.513,261.259 131.456,261.368 131.554 C 261.636 131.796,262.575 130.573,262.373 130.246 C 262.285 130.104,262.323 130.019,262.457 130.056 C 262.830 130.161,264.306 128.005,264.146 127.589 C 264.069 127.388,264.110 127.289,264.238 127.367 C 264.540 127.554,267.825 122.574,267.620 122.241 C 267.533 122.102,267.556 122.019,267.669 122.056 C 267.782 122.094,267.920 122.013,267.975 121.875 C 268.030 121.737,268.244 121.501,268.451 121.350 C 268.679 121.183,268.747 120.948,268.625 120.749 C 268.493 120.537,268.521 120.483,268.702 120.596 C 268.868 120.698,269.249 120.332,269.638 119.697 C 269.999 119.107,270.514 118.313,270.783 117.932 C 271.053 117.551,271.194 117.112,271.098 116.956 C 270.996 116.791,271.034 116.741,271.189 116.837 C 271.340 116.930,271.819 116.430,272.290 115.689 C 273.311 114.082,273.404 113.875,272.994 114.129 C 272.777 114.263,272.734 114.228,272.861 114.022 C 272.965 113.854,273.113 113.780,273.190 113.857 C 273.424 114.091,274.042 113.020,273.851 112.711 C 273.743 112.537,273.782 112.491,273.950 112.594 C 274.309 112.816,275.102 111.617,274.858 111.222 C 274.748 111.044,274.778 110.988,274.933 111.084 C 275.286 111.302,275.839 110.596,275.608 110.222 C 275.506 110.058,275.527 109.987,275.654 110.066 C 275.876 110.203,277.750 107.704,277.750 107.271 C 277.750 107.156,277.919 106.921,278.125 106.750 C 278.563 106.386,278.635 105.887,278.211 106.149 C 278.031 106.260,277.991 106.217,278.104 106.035 C 278.203 105.874,278.377 105.799,278.490 105.869 C 278.787 106.053,279.553 104.788,279.347 104.454 C 279.247 104.292,279.284 104.242,279.436 104.335 C 279.784 104.551,281.345 102.107,281.107 101.720 C 280.996 101.540,281.029 101.489,281.192 101.589 C 281.531 101.798,283.068 99.563,282.840 99.193 C 282.745 99.040,282.788 98.994,282.939 99.087 C 283.276 99.295,284.824 96.822,284.593 96.448 C 284.495 96.289,284.537 96.243,284.692 96.339 C 284.941 96.493,286.500 94.492,286.500 94.018 C 286.500 93.904,286.674 93.667,286.886 93.491 C 287.099 93.314,287.213 93.013,287.139 92.822 C 287.066 92.631,287.095 92.529,287.203 92.596 C 287.393 92.714,289.500 89.815,289.500 89.436 C 289.500 89.221,289.595 89.216,285.500 89.641 " stroke="none" fill="#71691e" fill-rule="evenodd"></path><path id="path2" d="M145.500 65.670 C 140.481 68.213,130.563 73.215,123.459 76.786 L 110.542 83.279 110.366 85.401 C 110.269 86.568,110.231 87.557,110.282 87.600 C 110.333 87.642,113.806 88.326,118.000 89.120 C 122.194 89.913,126.750 90.778,128.125 91.042 C 129.500 91.306,131.377 91.642,132.297 91.789 L 133.969 92.056 137.705 97.715 C 141.127 102.900,145.155 109.020,151.874 119.250 C 153.274 121.381,155.974 125.487,157.873 128.375 C 161.963 134.591,165.445 139.890,169.046 145.375 C 170.490 147.575,173.114 151.569,174.878 154.250 C 176.642 156.931,179.004 160.531,180.128 162.250 C 181.252 163.969,184.134 168.356,186.532 172.000 C 188.930 175.644,191.273 179.216,191.738 179.938 C 192.802 181.588,192.980 181.577,193.918 179.813 L 194.681 178.375 194.241 177.000 C 193.999 176.244,193.554 174.781,193.251 173.750 C 192.534 171.307,192.135 169.985,191.516 168.000 C 191.238 167.106,190.613 165.025,190.128 163.375 C 189.089 159.837,188.335 157.305,187.859 155.750 C 187.432 154.355,186.607 151.572,186.081 149.750 C 185.862 148.994,185.488 147.756,185.250 147.000 C 185.012 146.244,184.635 145.006,184.413 144.250 C 184.191 143.494,183.613 141.525,183.128 139.875 C 182.191 136.683,181.452 134.235,180.749 132.000 C 180.511 131.244,180.138 130.006,179.919 129.250 C 179.701 128.494,179.287 127.088,179.000 126.125 C 178.713 125.162,178.316 123.813,178.117 123.125 C 177.918 122.438,177.534 121.144,177.263 120.250 C 176.703 118.400,175.234 113.475,174.467 110.875 C 174.183 109.912,173.793 108.619,173.600 108.000 C 173.269 106.940,171.107 99.721,169.969 95.875 C 169.684 94.912,169.296 93.619,169.108 93.000 C 168.647 91.488,167.817 88.684,167.332 87.000 C 167.114 86.244,166.794 85.175,166.621 84.625 C 166.447 84.075,166.056 82.781,165.752 81.750 C 164.624 77.930,164.227 76.598,163.891 75.500 C 163.701 74.881,163.298 73.531,162.995 72.500 C 162.691 71.469,162.296 70.175,162.118 69.625 C 161.939 69.075,161.548 67.781,161.248 66.750 L 160.704 64.875 157.986 63.125 C 156.491 62.163,155.264 61.291,155.259 61.188 C 155.239 60.781,154.309 61.208,145.500 65.670 " stroke="none" fill="#3c7f9f" fill-rule="evenodd"></path><path id="path3" d="M227.216 18.118 C 227.136 18.197,226.296 18.489,225.348 18.767 C 223.082 19.432,222.011 19.762,218.125 20.991 C 216.338 21.556,214.369 22.169,213.750 22.353 C 213.131 22.537,210.600 23.329,208.125 24.113 C 205.650 24.897,203.091 25.699,202.438 25.894 C 201.784 26.090,200.716 26.410,200.063 26.606 C 199.409 26.802,197.412 27.430,195.625 28.001 C 193.838 28.573,191.869 29.180,191.250 29.350 L 190.125 29.660 193.738 32.330 C 197.712 35.267,197.545 35.200,199.204 34.519 C 200.866 33.837,203.660 32.759,205.125 32.234 C 205.813 31.988,206.938 31.567,207.625 31.298 C 208.313 31.029,210.450 30.220,212.375 29.500 C 214.300 28.780,216.381 27.992,217.000 27.750 C 217.619 27.508,219.700 26.720,221.625 26.000 C 223.550 25.280,225.688 24.472,226.375 24.206 C 227.063 23.939,228.412 23.434,229.375 23.084 C 230.338 22.734,231.181 22.375,231.250 22.286 C 231.414 22.075,227.403 17.930,227.216 18.118 M111.268 88.735 C 111.703 89.276,112.221 89.781,112.420 89.858 C 112.619 89.934,112.722 90.093,112.649 90.211 C 112.577 90.328,112.766 90.648,113.071 90.920 C 113.689 91.474,114.351 92.231,115.983 94.252 C 116.593 95.007,117.324 95.867,117.608 96.163 C 117.892 96.459,118.370 97.022,118.669 97.413 C 118.969 97.805,119.424 98.350,119.682 98.625 C 119.940 98.900,121.094 100.250,122.246 101.625 C 123.399 103.000,124.470 104.237,124.626 104.375 C 124.783 104.513,125.672 105.553,126.602 106.688 C 127.532 107.822,128.396 108.750,128.522 108.750 C 128.647 108.750,128.724 108.834,128.692 108.938 C 128.659 109.041,128.913 109.413,129.254 109.764 C 129.596 110.116,130.760 111.494,131.842 112.827 C 132.924 114.160,133.909 115.250,134.030 115.250 C 134.151 115.250,134.222 115.334,134.187 115.438 C 134.153 115.541,134.350 115.855,134.625 116.136 C 134.900 116.418,135.631 117.259,136.250 118.006 C 136.869 118.753,137.628 119.625,137.938 119.944 C 138.247 120.262,138.500 120.589,138.500 120.670 C 138.500 120.751,138.753 121.067,139.063 121.371 C 139.876 122.171,140.768 123.200,141.890 124.630 C 142.432 125.320,143.233 126.276,143.671 126.755 C 144.749 127.934,146.439 129.917,147.500 131.247 C 148.725 132.783,150.669 135.030,152.313 136.809 C 152.691 137.218,153.002 137.625,153.004 137.714 C 153.007 137.803,153.538 138.438,154.185 139.125 C 154.831 139.813,155.866 140.994,156.484 141.750 C 157.914 143.500,158.730 144.450,159.438 145.187 C 159.747 145.509,160.000 145.814,160.000 145.865 C 160.000 145.916,160.366 146.353,160.813 146.838 C 161.697 147.797,161.773 147.886,163.473 149.964 C 164.837 151.631,165.686 152.616,166.384 153.344 C 166.664 153.636,167.264 154.354,167.718 154.939 C 168.172 155.524,168.664 155.928,168.811 155.838 C 168.962 155.744,169.005 155.790,168.910 155.944 C 168.817 156.093,168.997 156.492,169.308 156.831 C 169.620 157.169,170.213 157.863,170.625 158.373 C 171.037 158.883,171.505 159.439,171.663 159.608 C 171.822 159.777,172.546 160.638,173.272 161.520 C 173.999 162.403,174.910 163.435,175.296 163.815 C 175.683 164.194,176.000 164.606,176.000 164.731 C 176.000 164.856,176.098 164.996,176.218 165.042 C 176.337 165.088,177.244 166.109,178.232 167.313 C 179.221 168.516,180.136 169.500,180.265 169.500 C 180.394 169.500,180.500 169.663,180.500 169.863 C 180.500 170.062,180.654 170.315,180.842 170.425 C 181.031 170.535,181.892 171.507,182.756 172.585 C 183.620 173.663,184.478 174.603,184.663 174.674 C 184.849 174.745,185.000 174.956,185.000 175.143 C 185.000 175.330,185.225 175.603,185.500 175.750 C 185.775 175.897,186.000 176.124,186.000 176.254 C 186.000 176.384,186.372 176.874,186.826 177.341 C 187.280 177.809,188.093 178.770,188.631 179.476 C 189.601 180.747,190.376 181.152,191.938 181.201 C 192.617 181.223,192.609 181.206,190.539 178.079 C 188.885 175.581,183.834 167.900,180.360 162.598 C 179.088 160.658,176.613 156.890,174.860 154.223 C 173.106 151.557,170.490 147.575,169.046 145.375 C 165.445 139.890,161.963 134.591,157.873 128.375 C 155.974 125.487,153.274 121.381,151.874 119.250 C 145.155 109.020,141.127 102.900,137.705 97.715 L 133.969 92.056 132.297 91.789 C 131.377 91.642,129.444 91.296,128.000 91.020 C 116.491 88.815,110.845 87.750,110.676 87.750 C 110.566 87.750,110.832 88.193,111.268 88.735 " stroke="none" fill="#3c6c4e" fill-rule="evenodd"></path><path id="path4" d="M238.000 58.845 C 238.000 58.897,241.353 64.212,245.450 70.657 C 249.548 77.102,252.981 82.507,253.079 82.669 C 253.198 82.865,251.988 83.579,249.424 84.823 L 245.592 86.684 245.063 88.280 C 244.773 89.157,243.281 93.531,241.748 98.000 C 240.215 102.469,238.813 106.575,238.632 107.125 C 238.306 108.119,234.593 118.953,229.252 134.500 C 227.716 138.969,226.313 143.075,226.132 143.625 C 225.951 144.175,224.395 148.731,222.673 153.750 C 220.952 158.769,218.115 167.037,216.370 172.125 C 214.625 177.213,212.995 181.994,212.747 182.750 C 212.500 183.506,211.677 185.925,210.919 188.125 C 208.617 194.804,203.275 210.402,201.988 214.201 C 200.985 217.163,200.841 217.801,201.149 217.919 C 201.593 218.089,201.828 217.895,201.888 217.307 C 201.912 217.070,202.911 214.625,204.108 211.875 C 206.279 206.887,208.465 201.807,212.713 191.875 C 217.170 181.454,219.780 175.366,220.000 174.875 C 220.258 174.300,224.002 165.561,227.283 157.875 C 228.516 154.988,229.681 152.268,229.874 151.832 C 230.066 151.395,232.262 146.277,234.753 140.457 C 237.244 134.637,240.285 127.540,241.511 124.685 C 242.737 121.831,244.742 117.162,245.966 114.310 C 247.190 111.458,249.063 107.100,250.127 104.625 C 251.960 100.363,253.611 96.477,254.825 93.573 C 255.363 92.286,255.383 92.270,256.622 92.143 C 258.447 91.956,266.927 91.236,270.125 90.996 C 271.637 90.882,274.900 90.611,277.375 90.394 C 279.850 90.176,283.225 89.879,284.875 89.735 C 286.525 89.590,288.300 89.407,288.819 89.328 L 289.764 89.184 289.694 85.834 L 289.625 82.484 286.625 81.097 C 284.975 80.334,282.894 79.366,282.000 78.947 C 281.106 78.528,279.925 77.989,279.375 77.749 C 278.359 77.306,276.247 76.326,272.042 74.348 C 270.759 73.744,269.671 73.250,269.625 73.250 C 269.579 73.250,268.491 72.756,267.208 72.153 C 264.969 71.100,262.107 69.783,255.625 66.822 C 253.975 66.068,251.582 64.956,250.308 64.351 C 249.034 63.745,247.941 63.250,247.880 63.250 C 247.770 63.250,246.487 62.659,241.026 60.090 C 238.142 58.734,238.000 58.675,238.000 58.845 " stroke="none" fill="#83b33b" fill-rule="evenodd"></path></g></svg>